<svg xmlns="http://www.w3.org/2000/svg" width="20" height="20" viewBox="0 0 20 20"><defs><style>.a{fill:#fafafa;stroke:#e4e4e4;stroke-width:0.5px;}.b{fill:#e1b93b;}.c{stroke:none;}.d{fill:none;}</style></defs><g transform="translate(-53 -416)"><g transform="translate(53 416)"><g class="a"><circle class="c" cx="10" cy="10" r="10"/><circle class="d" cx="10" cy="10" r="9.75"/></g></g><g transform="translate(56.333 419.333)"><path class="b" d="M418.016,414.727l-1.617-1.616,1.617-1.617,1.617,1.617Zm3.674-1.616-.007.007,1.5,1.5,1.506-1.506-1.516-1.516-1.5,1.5Z" transform="translate(-411.344 -406.439)"/><path class="b" d="M106.254,102.867l2.6-2.6,2.636,2.636,1.5-1.5-4.136-4.136-4.1,4.1Zm5.245,2.1-2.647,2.647-2.623-2.623-1.5,1.5,4.123,4.123L113,106.469Zm-6.32-1.027.055-.055-1.5-1.5-1.555,1.555,1.529,1.529,1.5-1.5Z" transform="translate(-102.18 -97.271)"/></g></g></svg>