<svg xmlns="http://www.w3.org/2000/svg" width="30" height="30" viewBox="0 0 30 30"><defs><style>.a{fill:#fafafa;stroke:#e4e4e4;stroke-width:0.5px;}.b{fill:#e1b93b;}.c{stroke:none;}.d{fill:none;}</style></defs><g transform="translate(-53 -416)"><g transform="translate(52.748 416)"><g class="a" transform="translate(0.252)"><circle class="c" cx="15" cy="15" r="15"/><circle class="d" cx="15" cy="15" r="14.75"/></g></g><g transform="translate(58 421)"><path class="b" d="M418.824,416.343l-2.425-2.425,2.425-2.425,2.425,2.425Zm5.51-2.425-.01.01,2.249,2.249,2.259-2.259-2.275-2.275-2.249,2.249Z" transform="translate(-408.816 -403.911)"/><path class="b" d="M108.291,105.666l3.9-3.9,3.955,3.955,2.249-2.249-6.2-6.2-6.146,6.146Zm7.868,3.153-3.97,3.97-3.935-3.935L106,111.1l6.184,6.184,6.219-6.219Zm-9.48-1.54.083-.083-2.249-2.249-2.332,2.332,2.294,2.294,2.249-2.249Z" transform="translate(-102.18 -97.271)"/></g></g></svg>