<svg xmlns="http://www.w3.org/2000/svg" width="30" height="30" viewBox="0 0 30 30"><defs><style>.a{fill:#1ba27a;}.b{fill:#fff;}</style></defs><g transform="translate(-185 -197)"><g transform="translate(185 197)"><path class="a" d="M0,15A15,15,0,1,0,15,0,15,15,0,0,0,0,15Z"/><path class="b" d="M279.9,258.2H267.469v3.156h4.716V266h3v-4.643H279.9Z" transform="translate(-258.719 -250.163)"/><path class="b" d="M217.654,453.328c0-1.049-3.559-1.9-7.964-1.9s-7.962.85-7.962,1.9c0,.924,2.768,1.694,6.428,1.863v6.764h3.011v-6.764C214.858,455.029,217.654,454.257,217.654,453.328Zm-7.964,1.228c-3.917,0-7.092-.66-7.092-1.468s3.174-1.472,7.091-1.472,7.092.659,7.092,1.472-3.174,1.468-7.091,1.468Z" transform="translate(-194.691 -438.562)"/></g></g></svg>