<svg xmlns="http://www.w3.org/2000/svg" width="12.861" height="13.765" viewBox="0 0 12.861 13.765"><defs><style>.a{fill:#939ca5;}</style></defs><g transform="translate(-95.92 -68.882)"><path class="a" d="M106.081,160.348a.5.5,0,0,1,.5.5v10.018a.5.5,0,0,1-.5.5H97.09a.5.5,0,0,1-.5-.5V160.847a.5.5,0,0,1,.5-.5h8.991m0-.671H97.09a1.173,1.173,0,0,0-1.17,1.17v10.018a1.173,1.173,0,0,0,1.17,1.17h8.991a1.173,1.173,0,0,0,1.17-1.17V160.847A1.173,1.173,0,0,0,106.081,159.677Z" transform="translate(0 -89.389)"/><path class="a" d="M260.18,382.7H254.8a.336.336,0,1,1,0-.671h5.383a.336.336,0,0,1,0,.671Zm0,2.667H254.8a.336.336,0,0,1,0-.671h5.383a.336.336,0,0,1,0,.671Zm-2.729,2.687H254.8a.336.336,0,1,1,0-.671h2.654a.336.336,0,1,1,0,.671Z" transform="translate(-156.086 -308.299)"/><path class="a" d="M366.669,79.218a.336.336,0,0,1-.336-.336V70.573a1.021,1.021,0,0,0-1.019-1.019h-6.773a.336.336,0,1,1,0-.671h6.773A1.693,1.693,0,0,1,367,70.573v8.309A.335.335,0,0,1,366.669,79.218Z" transform="translate(-258.223)"/></g></svg>