<svg xmlns="http://www.w3.org/2000/svg" width="10.62" height="5.856" viewBox="0 0 10.62 5.856"><defs><style>.a{fill:#aeaeae;}</style></defs><g transform="translate(-62 25.857) rotate(-90)"><path class="a" d="M237.426,5.341a.561.561,0,0,1,.79,0,.553.553,0,0,1,0,.785l-4.739,4.722a.561.561,0,0,1-.79,0,.553.553,0,0,1,0-.785Z" transform="translate(-212.524 56.823)"/><path class="a" d="M238.217,463.575a.553.553,0,0,1,0,.785.561.561,0,0,1-.79,0l-4.739-4.722a.553.553,0,0,1,0-.785.561.561,0,0,1,.79,0Z" transform="translate(-212.523 -391.902)"/></g></svg>