<svg xmlns="http://www.w3.org/2000/svg" width="20" height="20" viewBox="0 0 20 20">
  <defs>
    <style>
      .cls-1 {
        fill: #fff;
      }

      .cls-2 {
        fill: #002377;
      }

      .cls-3 {
        fill: #c2121f;
      }
    </style>
  </defs>
  <g id="组_56634" data-name="组 56634" transform="translate(-5.69 -5.917)">
    <path id="路径_33170" data-name="路径 33170" class="cls-1" d="M15.245,23.549a9.908,9.908,0,0,0,.4,1.432h.825l-.661.429a10.115,10.115,0,0,0,.881,1.67l3.225-2.1h2.326L17.452,28.1q.209.242.431.472l4.427-2.886v5.538a9.964,9.964,0,0,0,1.193.261V23.549Zm11.364,7.937a9.965,9.965,0,0,0,1.193-.261V25.747l4.391,2.861a10.144,10.144,0,0,0,1.213-1.5l-3.272-2.131h2.326l1.575,1.027c.088-.18.171-.362.247-.546l-.737-.481h.924a9.829,9.829,0,0,0,.4-1.432H26.609v7.939ZM23.5,11.719a9.964,9.964,0,0,0-1.193.261v5.655l-4.5-2.931a10.262,10.262,0,0,0-1.142,1.443l3.187,2.077H17.533l-1.485-.969q-.149.31-.276.629l.521.339h-.652a9.8,9.8,0,0,0-.4,1.43H23.5Zm11.364,7.937a9.8,9.8,0,0,0-.4-1.43h-.746l.6-.389a10.093,10.093,0,0,0-.872-1.672L30.29,18.226H27.962l4.73-3.084c-.139-.164-.281-.321-.431-.477L27.8,17.572v-5.59a9.965,9.965,0,0,0-1.193-.261v7.934h8.259Z" transform="translate(-9.366 -5.687)"/>
    <path id="路径_33171" data-name="路径 33171" class="cls-2" d="M35.271,38.031c.052.146.108.288.166.429l.661-.429Zm.128-7.1q-.068.168-.128.339h.649Zm16.493-3.219a9.995,9.995,0,0,0-4.459-2.684v5.59Zm-9.951-2.684a10,10,0,0,0-4.5,2.722l4.5,2.931ZM37.514,41.62a9.983,9.983,0,0,0,4.427,2.652V38.734ZM54.1,31.276q-.071-.2-.148-.389l-.6.389Zm-6.67,13a9.991,9.991,0,0,0,4.391-2.614L47.433,38.8v5.476Zm6.483-5.763q.1-.238.187-.481h-.924Z" transform="translate(-28.997 -18.738)"/>
    <path id="路径_33172" data-name="路径 33172" class="cls-3" d="M17.243,25.8V17.864H25.5a10.131,10.131,0,0,0,0-3.893H17.243V6.036a9.834,9.834,0,0,0-1.485-.119h-.135a10.082,10.082,0,0,0-1.485.119V13.97H5.879a10.131,10.131,0,0,0,0,3.893h8.258V25.8a9.813,9.813,0,0,0,1.485.119h.133a10.456,10.456,0,0,0,1.488-.119Z" transform="translate(0 0)"/>
    <path id="路径_33173" data-name="路径 33173" class="cls-3" d="M69.842,194.841l3.27,2.132a10.1,10.1,0,0,0,.634-1.1l-1.575-1.028Zm.153-6.755,3.162-2.062A9.961,9.961,0,0,0,72.4,185l-4.728,3.085h2.326Zm-10.43,0-3.187-2.078a10.33,10.33,0,0,0-.627,1.108l1.485.969Zm.052,6.755-3.223,2.1a10.285,10.285,0,0,0,.764,1.019l4.785-3.121H59.616Z" transform="translate(-49.073 -175.549)"/>
  </g>
</svg>
