<svg xmlns="http://www.w3.org/2000/svg" width="25" height="25" viewBox="0 0 25 25"><defs><style>.a{fill:#fefefe;stroke:#759dc7;stroke-width:0.5px;}.b{fill:#74afe6;}.c{fill:#cbd9ff;}.d{fill:#8ab7e9;}.e{fill:#5293c8;}.f{fill:#c4d4ff;}.g{fill:#759dc7;}.h{stroke:none;}.i{fill:none;}</style></defs><g transform="translate(0 0.41)"><g transform="translate(0 -0.41)"><g transform="translate(0 0)"><g class="a"><circle class="h" cx="12.5" cy="12.5" r="12.5"/><circle class="i" cx="12.5" cy="12.5" r="12.25"/></g></g></g><g transform="translate(8 3.589)"><path class="b" d="M254.185,408.23l-4.885-3.161,4.885-2.169Z" transform="translate(-249.3 -396.609)"/><path class="c" d="M254.185,64.7,249.3,73.16l4.885-2.169Z" transform="translate(-249.3 -64.7)"/><path class="d" d="M512.1,64.7l4.885,8.46L512.1,70.991Z" transform="translate(-507.211 -64.7)"/><path class="e" d="M512.1,408.23l4.885-3.161L512.1,402.9Z" transform="translate(-507.211 -396.609)"/><path class="f" d="M254.187,588.332,249.3,581.3h0l4.883,3.159h0Z" transform="translate(-249.3 -571.69)"/><path class="g" d="M511.8,588.332l4.887-7.032h0l-4.883,3.159h0Z" transform="translate(-506.917 -571.69)"/></g></g></svg>