<svg xmlns="http://www.w3.org/2000/svg" width="25" height="25" viewBox="0 0 25 25"><defs><style>.a{fill:#fefefe;stroke-width:0.5px;}.a,.b{stroke:#74af70;}.b,.d{fill:none;}.b{stroke-width:1.3px;}.c{stroke:none;}</style></defs><g transform="translate(0 0.113)"><g transform="translate(0 -0.113)"><g class="a" transform="translate(0 0)"><circle class="c" cx="12.5" cy="12.5" r="12.5"/><circle class="d" cx="12.5" cy="12.5" r="12.25"/></g></g><g transform="translate(8 4.887)"><path class="b" d="M-155.985-28.77a5.926,5.926,0,0,0-1.731-4.32s-.056-.033-.053.049v0c-.063,3.9-2.05,4.951-3.145,6.376a4.779,4.779,0,0,0,2.214,7.547c1.336.372-.309-.658-.52-2.836-.257-2.635,3.234-4.642,3.234-6.82" transform="translate(162 33.097)"/><path class="b" d="M75.672,248a.039.039,0,0,0-.056.007,7.176,7.176,0,0,1-1.257,2.5c-2.3,3.267-.987,4.843-.253,5.688.428.49,0,0,1.069-.5a4.539,4.539,0,0,0,2.3-3.487,4.926,4.926,0,0,0-1.8-4.208" transform="translate(-68.344 -242.35)"/></g></g></svg>