<svg xmlns="http://www.w3.org/2000/svg" width="20" height="20" viewBox="0 0 20 20">
  <defs>
    <style>
      .cls-1 {
        fill: #de2910;
      }

      .cls-2 {
        fill: #fff;
      }
    </style>
  </defs>
  <g id="组_56638" data-name="组 56638" transform="translate(-96 -96)">
    <path id="路径_33183" data-name="路径 33183" class="cls-1" d="M106,106m-10,0a10,10,0,1,0,10-10A10,10,0,0,0,96,106Z" transform="translate(0)"/>
    <path id="路径_33184" data-name="路径 33184" class="cls-2" d="M430.041,302c-3.093-.187-4.562,3.9-1.593,5.392a1.967,1.967,0,0,1-.656-1.028,2.289,2.289,0,0,1,.281-1.808l.062.031a2.28,2.28,0,0,0-.25,1.746,2.1,2.1,0,0,0,.687,1.06,1.21,1.21,0,0,1,.531-1.933,1.5,1.5,0,0,0,.593-1.933A.99.99,0,0,1,430.041,302Zm-1.5,2.4-.188.281-.062-.343-.344-.062.313-.156-.031-.343.25.249.313-.125-.156.312.219.281Zm0,0" transform="translate(-322.975 -201.161)"/>
    <path id="路径_33185" data-name="路径 33185" class="cls-2" d="M500.69,413.769a2.875,2.875,0,0,1,5.686-.437.987.987,0,0,0-1.562.125,1.488,1.488,0,0,1-2,.031A1.231,1.231,0,0,0,500.69,413.769Zm0,0" transform="translate(-395.204 -307.553)"/>
    <path id="路径_33186" data-name="路径 33186" class="cls-1" d="M501.612,450.665l.156-.312-.313.125-.25-.218v.343l-.312.156.344.094.062.343.188-.281.375.031Zm-.656-.218a2.316,2.316,0,0,0-1.812.312A1.941,1.941,0,0,0,498.27,452h.094a1.817,1.817,0,0,1,.843-1.184,2.158,2.158,0,0,1,1.749-.281v-.094Zm0,0" transform="translate(-392.734 -345.796)"/>
    <path id="路径_33187" data-name="路径 33187" class="cls-2" d="M500.69,514.423a2.858,2.858,0,0,1,2.187,5.236.978.978,0,0,0-.593-1.434,1.474,1.474,0,0,1-.656-1.9,1.233,1.233,0,0,0-.937-1.9Zm0,0" transform="translate(-395.098 -408.498)"/>
    <path id="路径_33188" data-name="路径 33188" class="cls-1" d="M503.086,517.8l.125-.312-.313.125-.25-.249v.343l-.281.187.313.094.094.343.188-.312.344.031-.219-.249Zm-.125-.5a2.253,2.253,0,0,0-.843-1.621,1.968,1.968,0,0,0-1.437-.436v.094a1.823,1.823,0,0,1,1.375.437,2.139,2.139,0,0,1,.812,1.559l.094-.031Zm0,0" transform="translate(-395.046 -409.269)"/>
    <path id="路径_33189" data-name="路径 33189" class="cls-2" d="M336,518.19a2.866,2.866,0,0,1-4.343,3.678.966.966,0,0,0,1.187-1,1.5,1.5,0,0,1,1.624-1.216A1.231,1.231,0,0,0,336,518.19Zm0,0" transform="translate(-230.109 -412.222)"/>
    <path id="路径_33190" data-name="路径 33190" class="cls-1" d="M414,519.5l-.344.125-.25-.218.031.343-.313.156.344.094.062.343.188-.281.344.031-.219-.281Zm1.406-2.524-.062.031a1.754,1.754,0,0,1,.031,1.434,2.179,2.179,0,0,1-1.219,1.247l.031.062a2.3,2.3,0,0,0,1.281-1.309A1.971,1.971,0,0,0,415.4,516.98Zm0,0" transform="translate(-309.565 -410.99)"/>
    <path id="路径_33191" data-name="路径 33191" class="cls-2" d="M307.077,405.9a2.858,2.858,0,0,1-4.842-2.961.979.979,0,0,0,1.343.81,1.506,1.506,0,0,1,1.656,1.153A1.2,1.2,0,0,0,307.077,405.9Zm0,0" transform="translate(-201.157 -299.682)"/>
    <path id="路径_33192" data-name="路径 33192" class="cls-1" d="M354.259,470.1l.156-.312-.313.125-.281-.249.031.374-.312.156.344.094.063.343.188-.312.344.062Zm3.031.779a1.85,1.85,0,0,1-1.375.468,2.24,2.24,0,0,1-1.593-.779l-.062.062a2.226,2.226,0,0,0,1.624.81,1.892,1.892,0,0,0,1.437-.5Zm0,0" transform="translate(-251.441 -364.734)"/>
  </g>
</svg>
