<svg id="pancanke" xmlns="http://www.w3.org/2000/svg" width="28" height="28" viewBox="0 0 28 28">
  <defs>
    <style>
      .cls-1, .cls-4 {
        fill: #633001;
      }

      .cls-1, .cls-3 {
        fill-rule: evenodd;
      }

      .cls-2 {
        fill: #fedc90;
      }

      .cls-3 {
        fill: #d1884f;
      }
    </style>
  </defs>
  <path id="路径_51922" data-name="路径 51922" class="cls-1" d="M5.021,5.011a3.732,3.732,0,1,1,7.408-.679V8.891Q13.2,8.837,14,8.837q.765,0,1.511.05V4.333a3.732,3.732,0,1,1,7.407.679L21.907,10.37c3.469,1.5,6.093,4.1,6.093,7.376v1.98c0,2.691-1.8,4.944-4.313,6.465A18.987,18.987,0,0,1,14,28.635a18.987,18.987,0,0,1-9.687-2.444C1.8,24.67,0,22.417,0,19.726v-1.98c0-3.255,2.6-5.849,6.037-7.352Zm15.591,6.063L21.795,4.8a2.59,2.59,0,1,0-5.141-.471v5.8q-.563-.071-1.143-.113Q14.767,9.969,14,9.968q-.8,0-1.571.058-.58.043-1.143.116V4.333A2.59,2.59,0,1,0,6.144,4.8l1.187,6.291c-3.71,1.364-6.188,3.833-6.188,6.651v1.98C1.143,24.021,6.9,27.5,14,27.5s12.857-3.482,12.857-7.778v-1.98C26.857,14.913,24.354,12.434,20.612,11.074Z" transform="translate(0 -0.635)"/>
  <path id="路径_51923" data-name="路径 51923" class="cls-2" d="M26.713,17.748c0,4.339-5.756,7.857-12.857,7.857S1,22.087,1,17.748v-2H26.713Z" transform="translate(0.144 1.252)"/>
  <path id="路径_51924" data-name="路径 51924" class="cls-3" d="M6,4.666a2.59,2.59,0,1,1,5.141-.47v5.8a21.345,21.345,0,0,1,5.368-.008V4.2a2.59,2.59,0,1,1,5.141.47l-1.183,6.259c3.742,1.357,6.245,3.832,6.245,6.66,0,4.288-5.756,7.764-12.857,7.764S1,21.872,1,17.585c0-2.813,2.478-5.277,6.188-6.639Z" transform="translate(0.144 -0.491)"/>
  <path id="路径_51925" data-name="路径 51925" class="cls-4" d="M9.477,15.518c0,1.184-.64,2.143-1.429,2.143S6.62,16.7,6.62,15.518s.64-2.143,1.429-2.143S9.477,14.334,9.477,15.518Z" transform="translate(0.952 1.023)"/>
  <path id="路径_51926" data-name="路径 51926" class="cls-4" d="M18.1,15.518c0,1.184-.64,2.143-1.429,2.143s-1.429-.959-1.429-2.143.64-2.143,1.429-2.143S18.1,14.334,18.1,15.518Z" transform="translate(2.19 1.023)"/>
</svg>
