<svg xmlns="http://www.w3.org/2000/svg" xmlns:xlink="http://www.w3.org/1999/xlink" width="20" height="20" viewBox="0 0 20 20"><defs><style>.a,.c{fill:#fafafa;stroke:#e4e4e4;}.a{stroke-width:0.5px;}.b{fill:url(#a);}.c{stroke-width:0.2px;}.d{fill:#e1b93b;}.e{stroke:none;}.f{fill:none;}</style><linearGradient id="a" x1="0.5" x2="0.5" y2="1" gradientUnits="objectBoundingBox"><stop offset="0" stop-color="#2d79e6"/><stop offset="1" stop-color="#093d87"/></linearGradient></defs><g transform="translate(-38 -901)"><g transform="translate(37.748 901.383)"><g class="a" transform="translate(0.252 -0.383)"><circle class="e" cx="10" cy="10" r="10"/><circle class="f" cx="10" cy="10" r="9.75"/></g><g transform="translate(5.337 3.815)"><path class="b" d="M205.607,168.61l-.368,2.49,2.157,1.718.946-1.474-2.139-1Z" transform="translate(-205.239 -168.61)"/><path class="b" d="M566.808,250.615v1l-.789.826,1.175.228.333-.9Z" transform="translate(-559.915 -249.228)"/><path class="b" d="M273.7,339.521l-1.474,2.385-.737,6.12,2.3-3.067,4.049-2.564.527-1.946Z" transform="translate(-270.371 -336.629)"/><path class="b" d="M296.968,569.9l2.2-2.92,2.868-1.766,4.047,4.686Z" transform="translate(-295.416 -558.507)"/></g></g><g transform="translate(-4 495.402)"><g transform="translate(53 416.478)"><g class="c" transform="translate(0 0.12)"><circle class="e" cx="4.5" cy="4.5" r="4.5"/><circle class="f" cx="4.5" cy="4.5" r="4.4"/></g></g><g transform="translate(54.526 418.124)"><path class="d" d="M417.12,412.935l-.72-.72.72-.72.72.72Zm1.637-.72,0,0,.668.668.671-.671-.676-.676-.668.668Z" transform="translate(-414.146 -409.241)"/><path class="d" d="M104,99.765l1.158-1.158,1.175,1.175.668-.668-1.843-1.843L103.327,99.1Zm2.338.937-1.18,1.18-1.169-1.169-.668.668,1.837,1.837L107,101.37Zm-2.817-.458.025-.025-.668-.668-.693.693.682.682.668-.668Z" transform="translate(-102.18 -97.271)"/></g></g></g></svg>