<svg xmlns="http://www.w3.org/2000/svg" xmlns:xlink="http://www.w3.org/1999/xlink" width="20" height="20" viewBox="0 0 20 20"><defs><style>.a,.c{fill:#fafafa;stroke:#e4e4e4;}.a{stroke-width:0.5px;}.b{fill:url(#a);}.c{stroke-width:0.2px;}.d{fill:#be0e2b;}.e{stroke:none;}.f{fill:none;}</style><linearGradient id="a" x1="0.5" x2="0.5" y2="1" gradientUnits="objectBoundingBox"><stop offset="0" stop-color="#2d79e6"/><stop offset="1" stop-color="#093d87"/></linearGradient></defs><g transform="translate(-38 -869)"><g transform="translate(37.748 869.333)"><g class="a" transform="translate(0.252 -0.333)"><circle class="e" cx="10" cy="10" r="10"/><circle class="f" cx="10" cy="10" r="9.75"/></g><g transform="translate(5.372 3.844)"><path class="b" d="M205.609,168.61l-.37,2.507,2.172,1.73.953-1.484-2.154-1.006Z" transform="translate(-205.239 -168.61)"/><path class="b" d="M566.814,250.615v1.009l-.794.831,1.183.23.336-.9Z" transform="translate(-559.873 -249.218)"/><path class="b" d="M273.718,339.521l-1.484,2.4-.742,6.162L273.807,345l4.077-2.582.53-1.959Z" transform="translate(-270.363 -336.609)"/><path class="b" d="M296.968,569.937,299.186,567l2.888-1.778,4.074,4.719Z" transform="translate(-295.405 -558.461)"/></g></g><g transform="translate(0 -32)"><g transform="translate(-4 495.348)"><g transform="translate(53 416.478)"><g class="c" transform="translate(0 0.174)"><circle class="e" cx="4.5" cy="4.5" r="4.5"/><circle class="f" cx="4.5" cy="4.5" r="4.4"/></g></g></g><path class="d" d="M25.867.754l-3.921-.7,2.083,5.162,2.858-3.463Zm.493.942-1.487.241.942-.793.545.553Zm-.97-.673-.972.807L22.818.506l2.571.517Zm-1.36,3.342L22.563.733l1.692,1.458L24.03,4.365Zm.29,0,.255-2.026,1.664-.311L24.319,4.365Z" transform="translate(29.054 913.948)"/></g></g></svg>