<svg xmlns="http://www.w3.org/2000/svg" width="4.785" height="8.678" viewBox="0 0 4.785 8.678">
  <defs>
    <style>
      .cls-1 {
        fill: #afafaf;
      }
    </style>
  </defs>
  <g id="组_66173" data-name="组 66173" transform="translate(24.785 70.677) rotate(-180)">
    <path id="路径_14523" data-name="路径 14523" class="cls-1" d="M236.53,5.311a.458.458,0,0,1,.645,0,.452.452,0,0,1,0,.641L233.3,9.809a.458.458,0,0,1-.645,0,.452.452,0,0,1,0-.641Z" transform="translate(-212.524 56.823)"/>
    <path id="路径_14524" data-name="路径 14524" class="cls-1" d="M237.176,462.682a.452.452,0,0,1,0,.642.458.458,0,0,1-.645,0l-3.872-3.858a.452.452,0,0,1,0-.642.458.458,0,0,1,.645,0Z" transform="translate(-212.523 -392.778)"/>
  </g>
</svg>
