<svg xmlns="http://www.w3.org/2000/svg" xmlns:xlink="http://www.w3.org/1999/xlink" width="317" height="77" viewBox="0 0 317 77">
  <defs>
    <style>
      .cls-1 {
        fill: none;
      }

      .cls-2 {
        fill: url(#linear-gradient);
      }

      .cls-3 {
        opacity: 0.44;
      }

      .cls-4 {
        clip-path: url(#clip-path);
      }

      .cls-5 {
        fill: #fff;
      }

      .cls-6 {
        opacity: 0.37;
      }

      .cls-7 {
        clip-path: url(#clip-path-2);
      }
    </style>
    <linearGradient id="linear-gradient" x1="0.033" y1="0.903" x2="0.975" y2="0.104" gradientUnits="objectBoundingBox">
      <stop offset="0" stop-color="#5c67f6"/>
      <stop offset="1" stop-color="#00b1f4"/>
    </linearGradient>
    <clipPath id="clip-path">
      <rect id="矩形_21636" data-name="矩形 21636" class="cls-1" width="317" height="63"/>
    </clipPath>
    <clipPath id="clip-path-2">
      <rect id="矩形_21637" data-name="矩形 21637" class="cls-1" width="317" height="38.5"/>
    </clipPath>
  </defs>
  <g id="组_57708" data-name="组 57708" transform="translate(-29 -291)">
    <path id="矩形_21646" data-name="矩形 21646" class="cls-2" d="M20,0H297a20,20,0,0,1,20,20V77a0,0,0,0,1,0,0H0a0,0,0,0,1,0,0V20A20,20,0,0,1,20,0Z" transform="translate(29 291)"/>
    <g id="组_57551" data-name="组 57551" class="cls-3" transform="translate(29 305.001)">
      <g id="组_57550" data-name="组 57550" class="cls-4" transform="translate(0 -0.001)">
        <path id="路径_33309" data-name="路径 33309" class="cls-5" d="M318,219V156.254a64.46,64.46,0,0,1-12.275,2.506c-3.03.223-6.181.065-9.161.407-8.521.976-12.476,5.533-20.383,7.259-5.579,1.219-12.75.934-17.4,2.778-4.07,1.615-4.882,4.39-8.729,6.113-4.147,1.856-10.81,2.034-16.542,1.477s-11.133-1.717-16.922-2.147a64.339,64.339,0,0,0-21.607,1.991c-2.459.707-21.813,7.893-41.156,16.127,1.615.642-27.7-10.6-29.813-11.212a64.264,64.264,0,0,0-21.6-1.989c-5.79.429-11.188,1.59-16.921,2.146s-12.4.378-16.542-1.476c-3.848-1.723-4.66-4.5-8.734-6.114-4.645-1.843-11.815-1.557-17.4-2.776-7.9-1.727-11.862-6.282-20.383-7.261-2.975-.341-6.126-.182-9.157-.406A64.327,64.327,0,0,1,1,161.169V219Z" transform="translate(-1 -156.253)"/>
      </g>
    </g>
    <g id="组_57555" data-name="组 57555" class="cls-6" transform="translate(29 320.257)">
      <g id="组_57554" data-name="组 57554" transform="translate(0 9.243)">
        <g id="组_57553" data-name="组 57553" class="cls-7">
          <path id="路径_33310" data-name="路径 33310" class="cls-5" d="M304.739,216.381c-3.273.137-6.677.04-9.9.25-9.2.6-13.477,3.4-22.019,4.454-6.025.748-13.772.573-18.793,1.7-4.4.991-5.274,2.694-9.429,3.751-4.48,1.138-11.678,1.248-17.869.906s-12.026-1.054-18.281-1.317a120.681,120.681,0,0,0-23.34,1.222c-2.656.434-23.121,8.98-44.017,14.033,1.745.394-30.361-10.644-32.648-11.017a120.545,120.545,0,0,0-23.338-1.22c-6.253.263-12.085.976-18.279,1.317s-13.393.232-17.869-.906c-4.157-1.057-5.034-2.76-9.435-3.752-5.018-1.131-12.762-.955-18.793-1.7-7.8-.968-12.043-3.383-19.735-4.252v33.493H318v-38.5a117.446,117.446,0,0,1-13.26,1.538" transform="translate(-1 -214.843)"/>
        </g>
      </g>
    </g>
  </g>
</svg>
