<svg xmlns="http://www.w3.org/2000/svg" xmlns:xlink="http://www.w3.org/1999/xlink" width="105.206" height="105.206" viewBox="0 0 105.206 105.206">
  <defs>
    <style>
      .cls-1 {
        fill: url(#radial-gradient);
      }

      .cls-2 {
        opacity: 0.63;
        fill: url(#linear-gradient);
      }
    </style>
    <radialGradient id="radial-gradient" cx="0.872" cy="0.041" r="2.448" gradientTransform="matrix(-0.861, 0.509, 0.269, 0.455, 1.611, -0.421)" gradientUnits="objectBoundingBox">
      <stop offset="0" stop-color="#fff"/>
      <stop offset="0.607" stop-color="#3586f5"/>
      <stop offset="1" stop-color="#576bf6"/>
    </radialGradient>
    <linearGradient id="linear-gradient" x1="0.632" y1="0.368" x2="-0.951" y2="1.889" gradientUnits="objectBoundingBox">
      <stop offset="0" stop-color="#87b7f9"/>
      <stop offset="1" stop-color="#3d80f5"/>
    </linearGradient>
  </defs>
  <g id="组_57707" data-name="组 57707" transform="translate(-0.026 52.456) rotate(-45)">
    <path id="路径_33501" data-name="路径 33501" class="cls-1" d="M73.871,1.991c-.21-1.347-.282-1.4-1.666-1.658A20.924,20.924,0,0,0,68.353,0,36.489,36.489,0,0,0,64.58.217a62.186,62.186,0,0,0-14.707,3.36A52.635,52.635,0,0,0,27.967,17.886a1.128,1.128,0,0,1-.912.406c-.087,0-.174-.007-.268-.014a71.111,71.111,0,0,0-7.618-.717H19A12.048,12.048,0,0,0,8.474,23.52q-2.009,3.15-4.012,6.315C3.216,31.79,1.942,33.716.732,35.693a4.1,4.1,0,0,0,3.1,6.423c3.845.29,7.69.521,11.536.731.7.036.992.224,1.057.963A15.6,15.6,0,0,0,18.619,50.7a14.605,14.605,0,0,0,11.029,6.981c1.789.239,1.738.253,1.868,2.1.253,3.693.529,7.393.876,11.079a4.011,4.011,0,0,0,3.968,3.78,4.334,4.334,0,0,0,2.368-.731c4.294-2.81,8.632-5.576,12.8-8.574a11.9,11.9,0,0,0,5.069-11.55c-.21-2.064-.384-4.135-.594-6.2A1.706,1.706,0,0,1,56.585,46,52.207,52.207,0,0,0,69.989,26,59.911,59.911,0,0,0,74.168,6.076c.007-.2.014-.391.014-.579a20.279,20.279,0,0,0-.311-3.5ZM51.089,34.02h-.08c-5.757-.043-10.92-5.2-10.8-10.9A10.979,10.979,0,0,1,51.379,12.013h.2a11.007,11.007,0,0,1-.492,22.007Z" transform="translate(0 0)"/>
    <path id="路径_33502" data-name="路径 33502" class="cls-2" d="M55.072,674.595c-2.006,2.028-4.033,4.026-6.032,6.047a2.23,2.23,0,0,1-1.586.782,2.023,2.023,0,0,1-.739-.145,2.086,2.086,0,0,1-1.448-2.035c-.029-.623-.014-1.245-.029-1.868-.022-.739-.029-1.006-.319-1.006a3.073,3.073,0,0,0-.768.2q-3.378,1.119-6.749,2.245a3.223,3.223,0,0,1-1.021.2,1.96,1.96,0,0,1-.956-.246,2.1,2.1,0,0,1-.941-2.687c.746-2.31,1.535-4.613,2.3-6.923.333-1,.311-1.021-.768-1.043-.652-.007-1.3,0-1.955-.029a2.079,2.079,0,0,1-1.977-1.4,2,2,0,0,1,.514-2.281q3.139-3.15,6.293-6.293A1.867,1.867,0,0,1,40.2,657.5a.944.944,0,0,1,.145.007,2.124,2.124,0,0,1,2.18,1.68,18.65,18.65,0,0,0,11.659,11.644,2.139,2.139,0,0,1,.891,3.766Z" transform="translate(-29.559 -609.574)"/>
  </g>
</svg>
