<svg xmlns="http://www.w3.org/2000/svg" width="21" height="21" viewBox="0 0 21 21"><defs><style>.a{fill:#92a9db;}.b{fill:#fff;}</style></defs><g transform="translate(-0.023 -0.177)"><g transform="translate(0 0)"><g transform="translate(0 0)"><rect class="a" width="21" height="21" rx="10.5" transform="translate(0.022 0.177)"/></g></g><path class="b" d="M10.724,1.326,9.267,10.068a.362.362,0,0,1-.182.256.366.366,0,0,1-.176.046.382.382,0,0,1-.137-.029L6.413,9.376a.319.319,0,0,0-.367.093l-1.229,1.5a.336.336,0,0,1-.279.131.326.326,0,0,1-.127-.023.368.368,0,0,1-.24-.342V8.975a.64.64,0,0,1,.143-.4L9.089,2.72,3.08,7.921a.16.16,0,0,1-.164.027L.758,7.064a.331.331,0,0,1-.227-.314.338.338,0,0,1,.182-.337L10.183.95A.343.343,0,0,1,10.365.9a.356.356,0,0,1,.206.064.35.35,0,0,1,.152.363Z" transform="translate(4.493 4.277)"/></g></svg>