<svg xmlns="http://www.w3.org/2000/svg" width="21" height="21" viewBox="0 0 21 21"><defs><style>.a{fill:#92a9db;}.b{fill:#fff;}</style></defs><g transform="translate(0 -0.177)"><g transform="translate(0 0)"><g transform="translate(0 0)"><rect class="a" width="21" height="21" rx="10.5" transform="translate(0 0.177)"/></g></g><path class="b" d="M107.757,175.047a5.235,5.235,0,0,1-1.4.344,2.265,2.265,0,0,0,1.069-1.225,5.078,5.078,0,0,1-1.542.537,2.534,2.534,0,0,0-1.775-.7,2.229,2.229,0,0,0-2.37,2.733,7.137,7.137,0,0,1-5.01-2.327,2.065,2.065,0,0,0-.331,1.122,2.181,2.181,0,0,0,1.083,1.852,2.626,2.626,0,0,1-1.1-.283v.027a2.283,2.283,0,0,0,1.948,2.182,2.8,2.8,0,0,1-.64.076,3.526,3.526,0,0,1-.459-.034,2.418,2.418,0,0,0,2.271,1.542,5.165,5.165,0,0,1-3.017.95,5.422,5.422,0,0,1-.587-.027,7.354,7.354,0,0,0,3.732,1,6.574,6.574,0,0,0,6.914-6.326c0-.1,0-.193-.007-.289A5.014,5.014,0,0,0,107.757,175.047Z" transform="translate(-90.9 -167.823)"/></g></svg>