<svg xmlns="http://www.w3.org/2000/svg" width="20" height="20" viewBox="0 0 20 20"><defs><style>.a{fill:#1ba27a;}.b{fill:#fff;}.c{fill:#fafafa;stroke:#e4e4e4;stroke-width:0.2px;}.d{fill:#e1b93b;}.e{stroke:none;}.f{fill:none;}</style></defs><g transform="translate(-38 -1081)"><g transform="translate(-147 884)"><g transform="translate(185 197)"><path class="a" d="M0,10A10,10,0,1,0,10,0,10,10,0,0,0,0,10Z"/><path class="b" d="M276.1,258.2h-8.633v2.192h3.275v3.224h2.084v-3.224H276.1Z" transform="translate(-261.808 -252.921)"/><path class="b" d="M211.954,452.748c0-.728-2.285-1.318-5.113-1.318s-5.112.59-5.112,1.318c0,.642,1.778,1.176,4.127,1.294v4.7h1.933v-4.7C210.159,453.93,211.954,453.393,211.954,452.748Zm-5.113.853c-2.515,0-4.554-.459-4.554-1.02s2.038-1.022,4.553-1.022,4.554.458,4.554,1.022-2.038,1.02-4.553,1.02Z" transform="translate(-196.841 -443.045)"/></g></g><g transform="translate(-4 675.402)"><g transform="translate(53 416.478)"><g class="c" transform="translate(0 0.12)"><circle class="e" cx="4.5" cy="4.5" r="4.5"/><circle class="f" cx="4.5" cy="4.5" r="4.4"/></g></g><g transform="translate(54.526 418.124)"><path class="d" d="M417.12,412.935l-.72-.72.72-.72.72.72Zm1.637-.72,0,0,.668.668.671-.671-.676-.676-.668.668Z" transform="translate(-414.146 -409.241)"/><path class="d" d="M104,99.765l1.158-1.158,1.175,1.175.668-.668-1.843-1.843L103.327,99.1Zm2.338.937-1.18,1.18-1.169-1.169-.668.668,1.837,1.837L107,101.37Zm-2.817-.458.025-.025-.668-.668-.693.693.682.682.668-.668Z" transform="translate(-102.18 -97.271)"/></g></g></g></svg>