<svg xmlns="http://www.w3.org/2000/svg" width="20" height="20" viewBox="0 0 20 20"><defs><style>.a{fill:#1ba27a;}.b{fill:#fff;}.c{fill:#fafafa;stroke:#e4e4e4;stroke-width:0.2px;}.d{fill:#be0e2b;}.e{stroke:none;}.f{fill:none;}</style></defs><g transform="translate(-38 -1049.166)"><g transform="translate(-147 852.166)"><g transform="translate(185 197)"><path class="a" d="M0,10A10,10,0,1,0,10,0,10,10,0,0,0,0,10Z"/><path class="b" d="M276.1,258.2h-8.633v2.192h3.275v3.224h2.084v-3.224H276.1Z" transform="translate(-261.808 -252.921)"/><path class="b" d="M211.954,452.748c0-.728-2.285-1.318-5.113-1.318s-5.112.59-5.112,1.318c0,.642,1.778,1.176,4.127,1.294v4.7h1.933v-4.7C210.159,453.93,211.954,453.393,211.954,452.748Zm-5.113.853c-2.515,0-4.554-.459-4.554-1.02s2.038-1.022,4.553-1.022,4.554.458,4.554,1.022-2.038,1.02-4.553,1.02Z" transform="translate(-196.841 -443.045)"/></g></g><g transform="translate(0 148)"><g transform="translate(-4 495.348)"><g transform="translate(53 416.478)"><g class="c" transform="translate(0 0.174)"><circle class="e" cx="4.5" cy="4.5" r="4.5"/><circle class="f" cx="4.5" cy="4.5" r="4.4"/></g></g></g><path class="d" d="M25.867.754l-3.921-.7,2.083,5.162,2.858-3.463Zm.493.942-1.487.241.942-.793.545.553Zm-.97-.673-.972.807L22.818.506l2.571.517Zm-1.36,3.342L22.563.733l1.692,1.458L24.03,4.365Zm.29,0,.255-2.026,1.664-.311L24.319,4.365Z" transform="translate(29.054 913.948)"/></g></g></svg>