<svg xmlns="http://www.w3.org/2000/svg" width="19.06" height="19.06" viewBox="0 0 19.06 19.06">
  <defs>
    <style>
      .cls-1 {
        fill: #fdb945;
      }
    </style>
  </defs>
  <path id="路径_51961" data-name="路径 51961" class="cls-1" d="M80.337,64H66.723A2.724,2.724,0,0,0,64,66.723V80.337a2.724,2.724,0,0,0,2.723,2.723H80.337a2.724,2.724,0,0,0,2.723-2.723V66.723A2.724,2.724,0,0,0,80.337,64ZM81.7,79.656a.681.681,0,0,1-.681.681H78.295a.681.681,0,1,1,0-1.361h2.042V77.614H78.295a.681.681,0,0,1,0-1.361h2.042V74.891H78.295a.681.681,0,0,1,0-1.361h2.723a.681.681,0,0,1,.681.681Zm-.681-10.211h-1.76L71.107,79.6a1.967,1.967,0,0,1-1.532.734,1.49,1.49,0,0,1-1.491-1.491V66.723H66.042a.681.681,0,0,1,0-1.361h4.084a.681.681,0,0,1,.681.681V76.656l5.753-7.21h-.988a.681.681,0,0,1,0-1.361h5.446a.681.681,0,0,1,0,1.361Z" transform="translate(-64 -64)"/>
</svg>
