<svg xmlns="http://www.w3.org/2000/svg" width="20" height="20" viewBox="0 0 20 20">
  <defs>
    <style>
      .cls-1 {
        fill: red;
      }

      .cls-2 {
        fill: #ffd600;
      }
    </style>
  </defs>
  <g id="组_56635" data-name="组 56635" transform="translate(-64.2 -64.2)">
    <path id="路径_33174" data-name="路径 33174" class="cls-1" d="M74.2,74.2m-10,0a10,10,0,1,0,10-10A10,10,0,0,0,64.2,74.2Z"/>
    <path id="路径_33175" data-name="路径 33175" class="cls-2" d="M153.5,148.887h1.677l.542-1.662.59,1.749h1.758l-1.325,1.093.551,1.728-1.511-1.05-1.441,1.05.415-1.771Zm8.391-.547v.54l-.628.144.551.278-.074.6.409-.389.569.157-.247-.547.291-.431-.562.087Zm0,3.208h-.628l.475.45-.208.54.481-.335.459.335-.072-.5.45-.363-.649-.131-.079-.555Zm-1.725,2.25.437-.324-.057.536.413.374-.564.07-.23.593-.223-.593h-.564l.365-.354-.033-.575Zm.175-7.8-.291.481-.615-.131.352.415-.251.59.461-.219.4.394V147l.5-.324-.553-.109Z" transform="translate(-87.347 -80.011)"/>
  </g>
</svg>
