<svg xmlns="http://www.w3.org/2000/svg" width="16" height="6" viewBox="0 0 16 6"><defs><style>.a{fill:silver;}</style></defs><g transform="translate(-178 -1241.098)"><g transform="translate(121.111 956.88)"><path class="a" d="M63.67,509.243H57.108c-.121,0-.219-.147-.219-.328s.1-.328.219-.328H63.67c.121,0,.219.147.219.328s-.1.328-.219.328Z" transform="translate(0 -221.682)"/><path class="a" d="M691.3,287.459a.327.327,0,0,1-.233-.1l-2.555-2.585a.328.328,0,0,1,.466-.462l2.555,2.585a.328.328,0,0,1-.233.559Z" transform="translate(-627.74)"/><path class="a" d="M686.182,512.236a.328.328,0,0,1-.231-.561l2.585-2.555a.328.328,0,1,1,.462.466l-2.585,2.555A.328.328,0,0,1,686.182,512.236Z" transform="translate(-625.21 -222.017)"/></g><g transform="translate(250.889 1531.317) rotate(180)"><path class="a" d="M63.67,509.243H57.108c-.121,0-.219-.147-.219-.328s.1-.328.219-.328H63.67c.121,0,.219.147.219.328s-.1.328-.219.328Z" transform="translate(0 -221.682)"/><path class="a" d="M691.3,287.459a.327.327,0,0,1-.233-.1l-2.555-2.585a.328.328,0,0,1,.466-.462l2.555,2.585a.328.328,0,0,1-.233.559Z" transform="translate(-627.74)"/><path class="a" d="M686.182,512.236a.328.328,0,0,1-.231-.561l2.585-2.555a.328.328,0,1,1,.462.466l-2.585,2.555A.328.328,0,0,1,686.182,512.236Z" transform="translate(-625.21 -222.017)"/></g></g></svg>