<svg xmlns="http://www.w3.org/2000/svg" width="19.799" height="19.799" viewBox="0 0 19.799 19.799"><defs><style>.a{fill:#707070;}</style></defs><g transform="translate(13.435 -85.56) rotate(45)"><path class="a" d="M129.041,141.884a.825.825,0,0,1-.694-.347.988.988,0,0,1,0-1.5l11.8-11.686a1.064,1.064,0,1,1,1.5,1.5l-11.917,11.686A.825.825,0,0,1,129.041,141.884Z" transform="translate(-70 -64.884)"/><path class="a" d="M140.843,135.6a.825.825,0,0,1-.694-.347l-11.8-11.8a1.064,1.064,0,1,1,1.5-1.5l11.8,11.8a.988.988,0,0,1,0,1.5A1.25,1.25,0,0,1,140.843,135.6Z" transform="translate(-70 -58.6)"/></g></svg>