<svg xmlns="http://www.w3.org/2000/svg" width="49" height="30" viewBox="0 0 49 30">
  <defs>
    <style>
      .cls-1 {
        fill: #fff;
        opacity: 0.4;
      }

      .cls-2 {
        fill: #f8c642;
      }

      .cls-3 {
        fill: #7b49b6;
      }

      .cls-4 {
        fill: #fc3a64;
      }

      .cls-5 {
        fill: #4657e3;
      }
    </style>
  </defs>
  <g id="组_65968" data-name="组 65968" transform="translate(-286 -206)">
    <g id="组_4" data-name="组 4" transform="translate(17 13)">
      <circle id="椭圆_1" data-name="椭圆 1" class="cls-1" cx="15" cy="15" r="15" transform="translate(269 193)"/>
      <circle id="椭圆_2" data-name="椭圆 2" class="cls-1" cx="15" cy="15" r="15" transform="translate(288 193)"/>
    </g>
    <g id="组_65967" data-name="组 65967" transform="translate(300.886 201.682)">
      <path id="路径_32881" data-name="路径 32881" class="cls-2" d="M718.022,526.122h-1.588v-3.861h1.588Zm.584-3.861h-.584v3.861h2.523v-3.861Z" transform="translate(-698.273 -502.638)"/>
      <path id="路径_32882" data-name="路径 32882" class="cls-2" d="M718.086,656.033h-1.652v-3.861h1.652Z" transform="translate(-698.273 -628.689)"/>
      <path id="路径_32883" data-name="路径 32883" class="cls-3" d="M772.034,656.045h-2.167v-3.861h2.523v3.5A.356.356,0,0,1,772.034,656.045Z" transform="translate(-750.118 -628.7)"/>
      <path id="路径_32884" data-name="路径 32884" class="cls-4" d="M720,396.2h-3.57v-3.861H720Z" transform="translate(-698.273 -376.576)"/>
      <path id="路径_32885" data-name="路径 32885" class="cls-5" d="M791.468,396.2h-1.939v-3.861h1.939Z" transform="translate(-769.195 -376.576)"/>
      <path id="路径_32886" data-name="路径 32886" class="cls-2" d="M174.54,272.421l-.6,2.644h-4.729l3.773-15.517h6.661l3.579,15.518h-4.678l-.61-2.644Zm.834-3.64H177.1l-.854-3.793Z" transform="translate(-176.313 -247.72)"/>
      <path id="路径_32887" data-name="路径 32887" class="cls-3" d="M273.947,259.547l-.68,2.8h7.987l-.646-2.8Z" transform="translate(-277.276 -247.72)"/>
      <path id="路径_32888" data-name="路径 32888" class="cls-4" d="M191.731,570.245h6.363l.834,3.64h-8.082Z" transform="translate(-197.305 -549.185)"/>
      <path id="路径_32889" data-name="路径 32889" class="cls-5" d="M406,442.6h4.651l.875,3.793h-4.672Z" transform="translate(-406.065 -425.338)"/>
      <path id="路径_32890" data-name="路径 32890" class="cls-4" d="M718.556,241.893h3.985v1.415h-3.985Z" transform="translate(-700.332 -230.602)"/>
      <path id="路径_32891" data-name="路径 32891" class="cls-4" d="M718.556,288.088h3.985V289.5h-3.985Z" transform="translate(-700.332 -275.424)"/>
    </g>
  </g>
</svg>
