<svg xmlns="http://www.w3.org/2000/svg" width="30" height="30" viewBox="0 0 30 30">
  <defs>
    <style>
      .cls-1 {
        fill: #fff;
        stroke: #dcdcdc;
        stroke-width: 0.2px;
      }

      .cls-2, .cls-5 {
        fill: #633001;
      }

      .cls-2, .cls-4 {
        fill-rule: evenodd;
      }

      .cls-3 {
        fill: #fedc90;
      }

      .cls-4 {
        fill: #d1884f;
      }

      .cls-6 {
        stroke: none;
      }

      .cls-7 {
        fill: none;
      }
    </style>
  </defs>
  <g id="组_66074" data-name="组 66074" transform="translate(-140 -570)">
    <g id="组_49959" data-name="组 49959">
      <g id="组_98" data-name="组 98" transform="translate(10 20)">
        <g id="组_89" data-name="组 89" transform="translate(-98 349)">
          <g id="椭圆_4" data-name="椭圆 4" class="cls-1" transform="translate(228 201)">
            <circle class="cls-6" cx="15" cy="15" r="15"/>
            <circle class="cls-7" cx="15" cy="15" r="14.9"/>
          </g>
        </g>
      </g>
    </g>
    <g id="pancanke" transform="translate(117.662 640.124)">
      <path id="路径_51922" data-name="路径 51922" class="cls-2" d="M3.021,3.295a2.247,2.247,0,1,1,4.457-.413V5.653q.466-.033.945-.033.46,0,.909.031V2.882a2.247,2.247,0,1,1,4.457.413L13.18,6.552c2.087.911,3.666,2.494,3.666,4.483v1.2a4.772,4.772,0,0,1-2.595,3.929,11.334,11.334,0,0,1-5.828,1.485,11.334,11.334,0,0,1-5.828-1.485A4.773,4.773,0,0,1,0,12.238v-1.2C0,9.056,1.562,7.48,3.632,6.567ZM12.4,6.98l.712-3.811a1.56,1.56,0,1,0-3.093-.286V6.408q-.339-.043-.688-.069-.447-.032-.909-.032-.48,0-.945.035-.349.026-.688.071V2.882A1.56,1.56,0,1,0,3.7,3.169l.714,3.824C2.179,7.821.688,9.322.688,11.035v1.2c0,2.611,3.463,4.727,7.735,4.727s7.736-2.116,7.736-4.727v-1.2C16.159,9.313,14.652,7.806,12.4,6.98Z" transform="translate(29.338 -64.759)"/>
      <path id="路径_51923" data-name="路径 51923" class="cls-3" d="M16.47,16.951c0,2.611-3.463,4.727-7.736,4.727S1,19.562,1,16.951v-1.2H16.47Z" transform="translate(29.027 -69.472)"/>
      <path id="路径_51924" data-name="路径 51924" class="cls-4" d="M4.008,3.48A1.56,1.56,0,1,1,7.1,3.194V6.724a12.691,12.691,0,0,1,3.229,0V3.194a1.56,1.56,0,1,1,3.093.286l-.712,3.811c2.251.827,3.758,2.333,3.758,4.055,0,2.611-3.463,4.727-7.736,4.727S1,13.957,1,11.346C1,9.633,2.49,8.133,4.722,7.3Z" transform="translate(29.027 -65.07)"/>
      <path id="路径_51925" data-name="路径 51925" class="cls-5" d="M8.339,14.664c0,.712-.385,1.289-.86,1.289s-.859-.577-.859-1.289S7,13.375,7.48,13.375,8.339,13.952,8.339,14.664Z" transform="translate(27.274 -68.732)"/>
      <path id="路径_51926" data-name="路径 51926" class="cls-5" d="M16.957,14.664c0,.712-.385,1.289-.859,1.289s-.859-.577-.859-1.289.385-1.289.859-1.289S16.957,13.952,16.957,14.664Z" transform="translate(24.586 -68.732)"/>
    </g>
  </g>
</svg>
