<svg xmlns="http://www.w3.org/2000/svg" width="25" height="25" viewBox="0 0 25 25"><defs><style>.a{fill:#fefefe;stroke:#e1b93b;stroke-width:0.5px;}.b{fill:#f0b90b;}.c{stroke:none;}.d{fill:none;}</style></defs><g transform="translate(-227 -384)"><g transform="translate(227 384)"><g transform="translate(0 0)"><g class="a" transform="translate(0)"><circle class="c" cx="12.5" cy="12.5" r="12.5"/><circle class="d" cx="12.5" cy="12.5" r="12.25"/></g></g></g><path class="b" d="M22.771,18.417l3.977-2.354,3.977,2.354-1.462.869L26.748,17.8l-2.514,1.484Zm7.953,2.972-1.462-.869L26.748,22l-2.514-1.484-1.463.869v1.739l2.514,1.484v2.972l1.463.865,1.462-.869V24.6l2.515-1.48Zm0,4.706V24.353l-1.465.869v1.741Zm1.037.615-2.514,1.484v1.739l3.977-2.354v-4.71l-1.465.867ZM30.3,19.9l1.462.869v1.739l1.462-.869V19.9l-1.462-.869Zm-5.013,8.915v1.739l1.461.869,1.462-.869V28.819l-1.462.869Zm-2.516-2.728,1.461.871V25.221l-1.461-.869Zm2.514-6.19,1.463.869L28.21,19.9l-1.462-.869Zm-3.552.869L23.2,19.9l-1.462-.869-1.462.869v1.739l1.462.869Zm0,2.972-1.462-.869v4.706l3.977,2.354V28.19l-2.516-1.482Z" transform="translate(212.728 372.937)"/></g></svg>