<svg xmlns="http://www.w3.org/2000/svg" width="52.488" height="52.488" viewBox="0 0 52.488 52.488">
  <defs>
    <style>
      .cls-1 {
        opacity: 0.55;
      }

      .cls-2 {
        fill: #f5f5f5;
      }
    </style>
  </defs>
  <g id="组_66050" data-name="组 66050" class="cls-1">
    <path id="路径_32642" data-name="路径 32642" class="cls-2" d="M422.758,424.211l-6.358-6.358,6.358-6.359,6.359,6.359Zm14.45-6.358-.027.027,5.9,5.9L449,417.853l-5.965-5.965-5.9,5.9Z" transform="translate(-396.514 -391.609)"/>
    <path id="路径_32643" data-name="路径 32643" class="cls-2" d="M118.2,119.285l10.22-10.22,10.37,10.37,5.9-5.9L128.424,97.271l-16.117,16.117Zm20.631,8.268-10.411,10.411L118.1,127.645l-5.9,5.9,16.216,16.216,16.308-16.308Zm-24.861-4.039.218-.218-5.9-5.9-6.115,6.115,6.016,6.016,5.9-5.9Z" transform="translate(-102.18 -97.271)"/>
  </g>
</svg>
