<svg xmlns="http://www.w3.org/2000/svg" width="36" height="36" viewBox="0 0 36 36"><defs><style>.a{fill:#fafafa;stroke:#e4e3e4;stroke-width:0.2px;}.b{fill:#fdae27;}.c{stroke:none;}.d{fill:none;}</style></defs><g transform="translate(-212 -405.923)"><g transform="translate(212 406)"><g class="a" transform="translate(0 -0.077)"><circle class="c" cx="18" cy="18" r="18"/><circle class="d" cx="18" cy="18" r="17.9"/></g></g><path class="b" d="M44.368,149.153a9.552,9.552,0,1,1,7.606-15.314l-3.483,2.049a5.6,5.6,0,0,0-4.123-1.818,5.544,5.544,0,1,0,0,11.089,5.745,5.745,0,0,0,4.123-1.818l3.483,2.049A9.571,9.571,0,0,1,44.368,149.153Zm14.316-10.372v-1.562H57.122v-1.613H55.508v1.613H53.921v-1.613H52.307v1.613H50.745v1.562h1.562v1.613H50.745v1.562h1.562v1.613h1.613v-1.613h1.562v1.613H57.1v-1.613h1.562v-1.562H57.1v-1.613Zm-3.15,1.639H53.921v-1.613h1.613Z" transform="translate(182.573 284.933)"/></g></svg>