<svg xmlns="http://www.w3.org/2000/svg" width="30" height="30" viewBox="0 0 30 30"><defs><style>.a{fill:#8a8a8a;}.b{fill:none;opacity:0;}</style></defs><g transform="translate(-206 -501)"><path class="a" d="M196.522,142.917a9.662,9.662,0,0,0-2.555.341V151.7a13.188,13.188,0,0,1,2.555-.253,8.4,8.4,0,0,1,1.89.216q.945.218,2.15.617c.1.037.294.1.575.2s.488.165.619.208.323.1.576.174.465.125.636.159.368.065.589.094a4.952,4.952,0,0,0,.633.043,9.66,9.66,0,0,0,2.555-.338v-8.447a12.978,12.978,0,0,1-2.555.256,8.4,8.4,0,0,1-1.89-.219q-.944-.218-2.149-.617l-.577-.2-.619-.2c-.131-.043-.323-.1-.575-.173s-.464-.128-.636-.162-.368-.063-.589-.094A4.98,4.98,0,0,0,196.522,142.917Zm0-1.706a7.251,7.251,0,0,1,1.518.176,16.2,16.2,0,0,1,1.564.427l1.5.5,1.565.427q1.563.427,1.517.176a11.687,11.687,0,0,0,1.418-.085,9.289,9.289,0,0,0,1.192-.213c.329-.085.622-.168.881-.253s.454-.156.582-.214l.186-.085V154.01c-.044.023-.111.054-.2.091s-.277.105-.562.208a9.156,9.156,0,0,1-.9.259q-.466.111-1.176.2a10.842,10.842,0,0,1-1.427.094,7.063,7.063,0,0,1-1.517-.179,14.694,14.694,0,0,1-1.565-.427l-1.5-.5-1.564-.429q-1.564-.422-1.518-.176a11.73,11.73,0,0,0-2.555.287v5.686a.853.853,0,0,1-1.705,0V142.067c.044-.023.112-.054.2-.091s.276-.108.562-.208a9.153,9.153,0,0,1,.9-.259q.467-.111,1.175-.2a10.875,10.875,0,0,1,1.428-.094Z" transform="translate(20.738 365.789)"/><g transform="translate(1 63)"><g transform="translate(0 36)"><rect class="b" width="30" height="30" transform="translate(205 402)"/></g></g></g></svg>