<svg xmlns="http://www.w3.org/2000/svg" xmlns:xlink="http://www.w3.org/1999/xlink" width="135" height="80" viewBox="0 0 135 80"><defs><style>.a{fill:#fff;stroke:#707070;}.b{clip-path:url(#a);}.c,.e{opacity:0.54;}.d,.l,.o{fill:none;}.e,.f,.g,.h,.i,.j,.k,.m,.n,.o,.q,.r,.s,.t{fill-rule:evenodd;}.e{fill:url(#b);}.f{fill:url(#c);}.g{fill:url(#d);}.h{fill:url(#e);}.i{fill:url(#f);}.j{fill:url(#g);}.k{fill:url(#h);}.l{stroke:#fff;stroke-width:2px;}.l,.o{stroke-linecap:round;stroke-linejoin:round;}.m{fill:#406ac6;}.n{fill:#bcd0f1;}.o{stroke:#b7dcfc;stroke-dasharray:2;}.p{opacity:0.47;}.q{fill:#bae637;}.r{fill:#389e0d;}.s{fill:#7cb305;}.t{fill:#3b68b8;}.u{opacity:0.45;}</style><clipPath id="a"><rect class="a" width="135" height="80" transform="translate(80 283.492)"/></clipPath><linearGradient id="b" x1="0.5" x2="0.5" y2="1" gradientUnits="objectBoundingBox"><stop offset="0" stop-color="#c1dbfe"/><stop offset="1" stop-color="#f7f5f5"/></linearGradient><linearGradient id="c" x1="0.5" x2="0.843" y2="0.4" gradientUnits="objectBoundingBox"><stop offset="0" stop-color="#afc0ef"/><stop offset="1" stop-color="#6e94e7"/></linearGradient><linearGradient id="d" x2="0.981" y2="0.4" xlink:href="#c"/><linearGradient id="e" x1="0.231" y1="0.133" x2="0.721" y2="0.869" gradientUnits="objectBoundingBox"><stop offset="0" stop-color="#b9d1f5"/><stop offset="1" stop-color="#89aff1"/></linearGradient><linearGradient id="f" x1="0.5" x2="0.379" y2="1" gradientUnits="objectBoundingBox"><stop offset="0" stop-color="#4b75cc"/><stop offset="1" stop-color="#8db1f9"/></linearGradient><linearGradient id="g" x1="0.959" y1="0.5" x2="-0.187" y2="0.292" gradientUnits="objectBoundingBox"><stop offset="0" stop-color="#bbccf8"/><stop offset="1" stop-color="#7c9bdc"/></linearGradient><linearGradient id="h" x1="0.5" x2="0.5" y2="1" gradientUnits="objectBoundingBox"><stop offset="0" stop-color="#aaceff"/><stop offset="1" stop-color="#97b4f6"/></linearGradient></defs><g class="b" transform="translate(-80 -283.492)"><g class="c" transform="translate(80.924 284.912)"><g transform="translate(0 0)"><g transform="translate(0 0)"><rect class="d" width="132.728" height="78.825"/><path class="e" d="M134.632,122.394C119.215,103.264,94.553,92,68.07,92A83.922,83.922,0,0,0,4,121.616Z" transform="translate(-1.904 -43.568)"/><g transform="translate(33.538 11.225)"><path class="f" d="M13.341,28.668l23.192-5.346v34.1H13.341Z" transform="translate(-6.35 -11.1)"/><path class="g" d="M57.375,23.321,84.592,30.1V57.422H57.131Z" transform="translate(-27.193 -11.1)"/><path class="h" d="M13.341,33.524V62.278L40.259,74.029V41.747Z" transform="translate(-6.35 -15.956)"/><path class="i" d="M64.6,43.048V75.33L88.145,63.173V36.257Z" transform="translate(-30.746 -17.257)"/><path class="j" d="M64.6,43.048,73.07,58.91,95.909,47.664,88.145,36.257Z" transform="translate(-30.746 -17.257)"/><path class="k" d="M6.991,33.524,0,45.228l6.991,2.879Z" transform="translate(0 -15.956)"/><line class="l" x2="18.136" y2="5.715" transform="translate(11.317 27.25)"/><line class="l" x2="9.788" y2="3.084" transform="translate(11.514 33.847)"/><line class="l" x2="7.899" y2="2.489" transform="translate(11.514 40.136)"/><g transform="translate(38.567 0)"><path class="m" d="M7.747,5.974v6.189L21.383,0Z" transform="translate(-3.688 0)"/><path class="n" d="M23.369,0,11.919,7.393l6.1,4.1Z" transform="translate(-5.673 0)"/><path class="n" d="M0,2.315,4.06,6.082,17.7,0Z" transform="translate(0 0)"/></g><path class="o" d="M68.608,15q-8.248,6.384-8.248,8.892a3.1,3.1,0,0,0,3.379,3.327c1.614,0,2.832-2.876-.273-3.327q-3.106-.45-5.87,8.072" transform="translate(-27.414 -7.14)"/></g><g class="p" transform="translate(25.661 49.065)"><g transform="translate(0 0)"><g transform="translate(3.08)"><path class="q" d="M2.451,9.629H0V1.238A1.214,1.214,0,0,1,1.22.028h.013A1.214,1.214,0,0,1,2.451,1.238Z" transform="translate(-0.002 -0.028)"/></g><path class="r" d="M10.644,17.22H8.188V12.838A1.184,1.184,0,0,1,9.379,11.66h.074a1.184,1.184,0,0,1,1.191,1.177Z" transform="translate(-3.897 -5.565)"/><path class="s" d="M4.317,12.938H1.844V8.174A1.189,1.189,0,0,1,3.038,6.99h.084A1.189,1.189,0,0,1,4.317,8.174Z" transform="translate(-0.878 -3.342)"/><g transform="translate(0 9.317)"><path class="t" d="M6.893,7.263H.46A.458.458,0,0,1,0,6.807V.48A.458.458,0,0,1,.46.024H6.893a.458.458,0,0,1,.46.456V6.807a.458.458,0,0,1-.46.456" transform="translate(0 -0.024)"/></g></g></g><g transform="translate(96.929 43.3)"><g class="u" transform="translate(0 0)"><g transform="translate(3.08)"><path class="q" d="M2.451,9.629H0V1.238A1.214,1.214,0,0,1,1.22.028h.013A1.214,1.214,0,0,1,2.451,1.238Z" transform="translate(-0.002 -0.028)"/></g><path class="r" d="M10.644,17.22H8.188V12.838A1.184,1.184,0,0,1,9.379,11.66h.074a1.184,1.184,0,0,1,1.191,1.177Z" transform="translate(-3.897 -5.565)"/><path class="s" d="M4.317,12.938H1.844V8.174A1.189,1.189,0,0,1,3.038,6.99h.084A1.189,1.189,0,0,1,4.317,8.174Z" transform="translate(-0.878 -3.342)"/><g transform="translate(0 9.317)"><path class="t" d="M6.893,7.263H.46A.458.458,0,0,1,0,6.807V.48A.458.458,0,0,1,.46.024H6.893a.458.458,0,0,1,.46.456V6.807a.458.458,0,0,1-.46.456" transform="translate(0 -0.024)"/></g></g></g></g></g></g></g></svg>