<svg xmlns="http://www.w3.org/2000/svg" width="214.004" height="59.002" viewBox="0 0 214.004 59.002">
  <defs>
    <style>
      .cls-1 {
        fill: #efecf3;
      }
    </style>
  </defs>
  <path id="减去_7" data-name="减去 7" class="cls-1" d="M-5152.948-8353h0l-3.1,0a2.655,2.655,0,0,0,.048-.5,2.5,2.5,0,0,0-2.5-2.5,2.5,2.5,0,0,0-2.5,2.5,2.47,2.47,0,0,0,.051.5h-3.1a2.624,2.624,0,0,0,.048-.5,2.5,2.5,0,0,0-2.5-2.5,2.5,2.5,0,0,0-2.5,2.5,2.7,2.7,0,0,0,.05.5h-4.1a2.655,2.655,0,0,0,.048-.5,2.5,2.5,0,0,0-2.5-2.5,2.5,2.5,0,0,0-2.5,2.5,2.52,2.52,0,0,0,.049.5h-4.1a2.655,2.655,0,0,0,.048-.5,2.5,2.5,0,0,0-2.5-2.5,2.5,2.5,0,0,0-2.5,2.5,2.7,2.7,0,0,0,.05.5h-3.1a2.624,2.624,0,0,0,.049-.5,2.5,2.5,0,0,0-2.5-2.5,2.5,2.5,0,0,0-2.5,2.5,2.478,2.478,0,0,0,.048.5h-4.1a2.642,2.642,0,0,0,.051-.5,2.5,2.5,0,0,0-2.5-2.5,2.5,2.5,0,0,0-2.5,2.5,2.7,2.7,0,0,0,.05.5h-4.1a2.655,2.655,0,0,0,.048-.5,2.5,2.5,0,0,0-2.5-2.5,2.5,2.5,0,0,0-2.5,2.5,2.478,2.478,0,0,0,.048.5h-4.1a2.624,2.624,0,0,0,.048-.5,2.5,2.5,0,0,0-2.5-2.5,2.5,2.5,0,0,0-2.5,2.5,2.7,2.7,0,0,0,.05.5h-3.1a2.593,2.593,0,0,0,.049-.5,2.5,2.5,0,0,0-2.5-2.5,2.5,2.5,0,0,0-2.5,2.5,2.7,2.7,0,0,0,.05.5h-4.1a2.658,2.658,0,0,0,.051-.5,2.5,2.5,0,0,0-2.5-2.5,2.5,2.5,0,0,0-2.5,2.5,2.7,2.7,0,0,0,.05.5h-4.1a2.624,2.624,0,0,0,.049-.5,2.5,2.5,0,0,0-2.5-2.5,2.5,2.5,0,0,0-2.5,2.5,2.478,2.478,0,0,0,.048.5h-3.1a2.658,2.658,0,0,0,.051-.5,2.5,2.5,0,0,0-2.5-2.5,2.5,2.5,0,0,0-2.5,2.5,2.52,2.52,0,0,0,.049.5h-4.1a2.624,2.624,0,0,0,.049-.5,2.5,2.5,0,0,0-2.5-2.5,2.5,2.5,0,0,0-2.5,2.5,2.7,2.7,0,0,0,.05.5h-4.1a2.658,2.658,0,0,0,.051-.5,2.5,2.5,0,0,0-2.5-2.5,2.5,2.5,0,0,0-2.5,2.5,2.52,2.52,0,0,0,.049.5h-3.1a2.642,2.642,0,0,0,.051-.5,2.5,2.5,0,0,0-2.5-2.5,2.5,2.5,0,0,0-2.5,2.5,2.7,2.7,0,0,0,.05.5h-4.1a2.624,2.624,0,0,0,.049-.5,2.5,2.5,0,0,0-2.5-2.5,2.5,2.5,0,0,0-2.5,2.5,2.52,2.52,0,0,0,.049.5h-4.1a2.593,2.593,0,0,0,.049-.5,2.5,2.5,0,0,0-2.5-2.5,2.5,2.5,0,0,0-2.5,2.5,2.7,2.7,0,0,0,.05.5h-4.1a2.658,2.658,0,0,0,.051-.5,2.5,2.5,0,0,0-2.5-2.5,2.5,2.5,0,0,0-2.5,2.5,2.52,2.52,0,0,0,.049.5h-3.1a2.666,2.666,0,0,0,.051-.5,2.5,2.5,0,0,0-2.5-2.5,2.5,2.5,0,0,0-2.5,2.5,2.7,2.7,0,0,0,.05.5h-4.1a2.624,2.624,0,0,0,.049-.5,2.5,2.5,0,0,0-2.5-2.5,2.5,2.5,0,0,0-2.5,2.5,2.52,2.52,0,0,0,.049.5h-4.1a2.64,2.64,0,0,0,.05-.5,2.5,2.5,0,0,0-2.5-2.5,2.5,2.5,0,0,0-2.5,2.5,2.7,2.7,0,0,0,.05.5h-3.1a2.624,2.624,0,0,0,.049-.5,2.5,2.5,0,0,0-2.5-2.5,2.5,2.5,0,0,0-2.5,2.5,2.456,2.456,0,0,0,.051.5h-3.1a2.655,2.655,0,0,0,.049-.5,2.5,2.5,0,0,0-2.5-2.5,2.5,2.5,0,0,0-2.5,2.5,2.513,2.513,0,0,0,.051.5H-5351a5,5,0,0,1-4.915-4.069A2.49,2.49,0,0,0-5354-8359.5a2.506,2.506,0,0,0-2-2.45v-3.1a2.5,2.5,0,0,0,2-2.45,2.506,2.506,0,0,0-2-2.45v-2.1a2.506,2.506,0,0,0,2-2.45,2.5,2.5,0,0,0-2-2.45v-3.1a2.506,2.506,0,0,0,2-2.45,2.508,2.508,0,0,0-2-2.452v-3.1a2.506,2.506,0,0,0,2-2.45,2.507,2.507,0,0,0-2-2.451v-2.1a2.506,2.506,0,0,0,2-2.452,2.506,2.506,0,0,0-2-2.45v-3.1a2.506,2.506,0,0,0,2-2.45,2.49,2.49,0,0,0-1.916-2.431A5,5,0,0,1-5351-8412h.051a2.508,2.508,0,0,0,2.451,2,2.508,2.508,0,0,0,2.449-2h3.1a2.512,2.512,0,0,0,2.451,2,2.511,2.511,0,0,0,2.453-2h3.1a2.5,2.5,0,0,0,2.447,2,2.505,2.505,0,0,0,2.451-2h4.1a2.512,2.512,0,0,0,2.451,2,2.507,2.507,0,0,0,2.449-2h4.1a2.5,2.5,0,0,0,2.447,2,2.5,2.5,0,0,0,2.451-2h3.1a2.511,2.511,0,0,0,2.453,2,2.508,2.508,0,0,0,2.449-2h4.1a2.5,2.5,0,0,0,2.447,2,2.505,2.505,0,0,0,2.451-2h4.1a2.512,2.512,0,0,0,2.451,2,2.507,2.507,0,0,0,2.449-2h4.1a2.5,2.5,0,0,0,2.447,2,2.5,2.5,0,0,0,2.451-2h3.1a2.508,2.508,0,0,0,2.449,2,2.51,2.51,0,0,0,2.453-2h4.1a2.511,2.511,0,0,0,2.449,2,2.507,2.507,0,0,0,2.453-2h4.1a2.511,2.511,0,0,0,2.454,2,2.507,2.507,0,0,0,2.449-2h3.1a2.513,2.513,0,0,0,2.451,2,2.512,2.512,0,0,0,2.451-2h4.1a2.508,2.508,0,0,0,2.449,2,2.506,2.506,0,0,0,2.451-2h4.1a2.511,2.511,0,0,0,2.449,2,2.513,2.513,0,0,0,2.453-2h3.1a2.508,2.508,0,0,0,2.449,2,2.506,2.506,0,0,0,2.451-2h4.1a2.513,2.513,0,0,0,2.451,2,2.512,2.512,0,0,0,2.451-2h4.1a2.508,2.508,0,0,0,2.449,2,2.506,2.506,0,0,0,2.451-2h4.1a2.513,2.513,0,0,0,2.451,2,2.512,2.512,0,0,0,2.451-2h3.1a2.507,2.507,0,0,0,2.447,2,2.507,2.507,0,0,0,2.454-2h4.1a2.51,2.51,0,0,0,2.453,2,2.512,2.512,0,0,0,2.451-2h4.1a2.5,2.5,0,0,0,2.449,2,2.506,2.506,0,0,0,2.451-2h3.1a2.507,2.507,0,0,0,2.449,2,2.51,2.51,0,0,0,2.451-2h3.1a2.508,2.508,0,0,0,2.451,2,2.513,2.513,0,0,0,2.453-2H-5147a5.009,5.009,0,0,1,4.908,4.034,2.314,2.314,0,0,0-.405-.034,2.5,2.5,0,0,0-2.5,2.5,2.5,2.5,0,0,0,2.5,2.5,2.511,2.511,0,0,0,.5-.051v3.1a2.461,2.461,0,0,0-.5-.051,2.5,2.5,0,0,0-2.5,2.5,2.5,2.5,0,0,0,2.5,2.5,2.511,2.511,0,0,0,.5-.051v2.1a2.418,2.418,0,0,0-.5-.051,2.5,2.5,0,0,0-2.5,2.5,2.5,2.5,0,0,0,2.5,2.5,2.475,2.475,0,0,0,.5-.051v3.1a2.418,2.418,0,0,0-.5-.051,2.5,2.5,0,0,0-2.5,2.5,2.5,2.5,0,0,0,2.5,2.5,2.458,2.458,0,0,0,.5-.05v3.1a2.461,2.461,0,0,0-.5-.051,2.5,2.5,0,0,0-2.5,2.5,2.5,2.5,0,0,0,2.5,2.5,2.454,2.454,0,0,0,.5-.05v2.1a2.418,2.418,0,0,0-.5-.051,2.5,2.5,0,0,0-2.5,2.5,2.5,2.5,0,0,0,2.5,2.5,2.475,2.475,0,0,0,.5-.051v3.1a2.418,2.418,0,0,0-.5-.051,2.5,2.5,0,0,0-2.5,2.5,2.5,2.5,0,0,0,2.5,2.5,2.4,2.4,0,0,0,.407-.034A5.012,5.012,0,0,1-5147-8353h-1.047a2.655,2.655,0,0,0,.049-.5,2.5,2.5,0,0,0-2.5-2.5,2.5,2.5,0,0,0-2.5,2.5,2.478,2.478,0,0,0,.048.5Z" transform="translate(5356.003 8412)"/>
</svg>
