<svg xmlns="http://www.w3.org/2000/svg" width="21" height="21" viewBox="0 0 21 21"><defs><style>.a{fill:#92a9db;}.b{fill:#fff;}</style></defs><g transform="translate(-0.046 -0.177)"><g transform="translate(0 0)"><g transform="translate(0 0)"><g transform="translate(0 0)"><rect class="a" width="21" height="21" rx="10.5" transform="translate(0.046 0.177)"/></g></g></g><path class="b" d="M71.546,33.869a1.067,1.067,0,0,1-1.076-1.054l0-.754c-2.115.455-2.562-.888-2.562-.888a2,2,0,0,0-.844-1.1c-.69-.467.052-.458.052-.458a1.6,1.6,0,0,1,1.165.776,1.629,1.629,0,0,0,2.212.626,1.6,1.6,0,0,1,.483-1.007c-1.689-.19-3.464-.836-3.464-3.718a2.894,2.894,0,0,1,.784-2.02,2.679,2.679,0,0,1,.074-1.991s.639-.2,2.091.771a7.283,7.283,0,0,1,3.807,0c1.452-.973,2.089-.771,2.089-.771a2.675,2.675,0,0,1,.075,1.991,2.89,2.89,0,0,1,.783,2.02c0,2.89-1.779,3.526-3.472,3.713a1.79,1.79,0,0,1,.516,1.393c0,1.007,0,1.418,0,1.418a1.068,1.068,0,0,1-1.075,1.055H71.546Z" transform="translate(-61.72 -17.085)"/></g></svg>