<svg xmlns="http://www.w3.org/2000/svg" width="17.267" height="14.558" viewBox="0 0 17.267 14.558"><defs><style>.a{fill:#707070;}</style></defs><g transform="translate(166.6 -206.222) rotate(90)"><path class="a" d="M320,162.03V153.9a.508.508,0,0,1,1.016,0v8.125a3.56,3.56,0,0,0,3.555,3.555.508.508,0,1,1,0,1.016A4.585,4.585,0,0,1,320,162.03Zm4.063-12.188a.509.509,0,0,1,.508-.508,4.585,4.585,0,0,1,4.571,4.571v8.125a.508.508,0,1,1-1.016,0V153.9a3.56,3.56,0,0,0-3.555-3.555.509.509,0,0,1-.508-.508Z" transform="translate(-111.069)"/><path class="a" d="M214.347,325.924a.508.508,0,0,1,.867-.359l2.35,2.35,2.35-2.35a.508.508,0,1,1,.718.718l-2.708,2.708a.507.507,0,0,1-.718,0l0,0-2.7-2.7a.5.5,0,0,1-.149-.359Zm-8.125-2.708a.5.5,0,0,1,.149-.359l2.708-2.708a.507.507,0,0,1,.718,0l0,0,2.7,2.7a.508.508,0,0,1-.718.718l-2.35-2.35-2.35,2.35a.508.508,0,0,1-.867-.359Z" transform="translate(0 -166.603)"/></g></svg>