<svg xmlns="http://www.w3.org/2000/svg" width="14.508" height="8" viewBox="0 0 14.508 8"><defs><style>.a{fill:#707070;}</style></defs><g transform="translate(-324.746 -283)"><path class="a" d="M239.221,5.4a.766.766,0,0,1,1.079,0,.755.755,0,0,1,0,1.072l-6.474,6.451a.766.766,0,0,1-1.079,0,.755.755,0,0,1,0-1.073Z" transform="translate(319.568 523.525) rotate(-90)"/><path class="a" d="M240.3,465.364a.755.755,0,0,1,0,1.073.766.766,0,0,1-1.079,0l-6.474-6.451a.755.755,0,0,1,0-1.073.767.767,0,0,1,1.079,0Z" transform="translate(-127.403 523.523) rotate(-90)"/></g></svg>