<svg xmlns="http://www.w3.org/2000/svg" width="16.54" height="16.399" viewBox="0 0 16.54 16.399"><defs><style>.a{fill:#707070;}</style></defs><g transform="translate(0 0)"><path class="a" d="M14.77,3.475a.652.652,0,0,1-.613.651H11.512a.652.652,0,0,1-.038-1.3h1.12A6.955,6.955,0,0,0,1.456,9.709a.652.652,0,1,1-1.275.272A8.255,8.255,0,0,1,13.467,1.853V.868A.652.652,0,0,1,14.08.218h.038a.652.652,0,0,1,.651.613V3.475Z" transform="translate(0 0)"/><path class="a" d="M117.2,350.071a8.255,8.255,0,0,1-13.5,6.374v1.011a.652.652,0,0,1-.613.651h-.038a.652.652,0,0,1-.651-.613V354.85a.652.652,0,0,1,.613-.651h2.645a.652.652,0,0,1,.038,1.3h-1.088a6.954,6.954,0,0,0,11.138-6.886.652.652,0,1,1,1.275-.272A8.284,8.284,0,0,1,117.2,350.071Z" transform="translate(-100.662 -341.926)"/></g></svg>