<svg xmlns="http://www.w3.org/2000/svg" width="46" height="45.975" viewBox="0 0 46 45.975">
  <defs>
    <style>
      .cls-1 {
        fill: #4657e3;
      }
    </style>
  </defs>
  <g id="组_65969" data-name="组 65969" transform="translate(-112.64 -108.8)">
    <path id="路径_32892" data-name="路径 32892" class="cls-1" d="M147.945,115.709,146.47,108.8l-10.719,7.7-10.719-7.7-1.475,6.909,12.195,10.3Zm-24.389,32.183,1.475,6.884,10.719-7.7,10.719,7.7,1.475-6.884-12.195-10.3Zm35.084-26.848-6.909-1.475-10.3,12.195,10.3,12.219,6.909-1.5-7.7-10.719Zm-39.091-1.475-6.909,1.475,7.7,10.719-7.7,10.719,6.909,1.5,10.3-12.219Z"/>
    <path id="路径_32893" data-name="路径 32893" class="cls-1" d="M459.729,455.889m-3.2,0a3.2,3.2,0,1,0,3.2-3.2A3.2,3.2,0,0,0,456.533,455.889Z" transform="translate(-324.077 -324.077)"/>
  </g>
</svg>
