<svg xmlns="http://www.w3.org/2000/svg" width="20.1" height="20.1" viewBox="0 0 20.1 20.1">
  <defs>
    <style>
      .cls-1 {
        fill: #fcfcfc;
        stroke: #ddd;
        stroke-width: 0.1px;
      }

      .cls-2 {
        fill: #003478;
      }

      .cls-3 {
        fill: #c60c31;
      }
    </style>
  </defs>
  <g id="组_56637" data-name="组 56637" transform="translate(-64.15 -64.15)">
    <path id="路径_33178" data-name="路径 33178" class="cls-1" d="M64.2,74.2a10,10,0,1,0,10-10A10,10,0,0,0,64.2,74.2Z"/>
    <path id="路径_33179" data-name="路径 33179" class="cls-2" d="M342.6,361.308a3.66,3.66,0,1,0,3.66-3.708A3.684,3.684,0,0,0,342.6,361.308Z" transform="translate(-272.273 -286.945)"/>
    <path id="路径_33180" data-name="路径 33180" class="cls-3" d="M350.544,358.67a3.712,3.712,0,0,1,3.017-1.67,3.892,3.892,0,0,1,2.139.672c.016.011.03.023.041.03a3.72,3.72,0,0,1,1.281,1.768,3.773,3.773,0,0,1-.14,2.866s-.062.188-.1.181a3.48,3.48,0,0,0-.046-1.576,1.63,1.63,0,0,0-1.56-1.045,1.964,1.964,0,0,0-.938.185c-.2.1-.249.172-.7.588a7.252,7.252,0,0,1-.805.7,1.821,1.821,0,0,1-1.466.089,1.8,1.8,0,0,1-1.16-1.343A2.027,2.027,0,0,1,350.544,358.67Z" transform="translate(-279.597 -286.326)"/>
    <path id="路径_33181" data-name="路径 33181" d="M168.458,257.022l.476.307-1.958,2.97c-.159-.116-.316-.234-.476-.351Zm.741.46.487.329-1.97,2.937-.5-.34Zm.719.493.478.329-1.943,2.937-.493-.318Zm8.226-.158.493-.335,1.963,2.937-.465.322Zm.737-.489.491-.329.9,1.337-.471.344Zm1.078,1.585.487-.313.892,1.308-.471.357Zm-2.567-.614.478-.313.907,1.33-.456.335Zm1.08,1.615.485-.322.879,1.315-.463.329Zm.89,4.3.516.313-.921,1.359-.5-.335Zm.759.482.487.322-.9,1.337-.491-.329Zm.759.489.474.307-.881,1.368-.516-.337Zm-1.067,1.613.458.3-.91,1.359-.487-.337Zm-.737-.484.434.3-.859,1.346-.5-.327Zm-.772-.506.482.313-.91,1.344-.5-.331Zm-10.343-1.276.493-.318,1.943,2.919-.445.331Zm-.741.519.5-.344.916,1.337-.5.318Zm1.073,1.585.469-.322.925,1.309-.507.333Zm-1.792-1.1.491-.348q.973,1.46,1.943,2.919l-.48.34Q167.475,266.988,166.5,265.53Z" transform="translate(-99.96 -188.39)"/>
  </g>
</svg>
