<svg xmlns="http://www.w3.org/2000/svg" width="28" height="28" viewBox="0 0 28 28"><defs><style>.a{fill:#fff;}.b{fill:#3a3b3d;}</style></defs><g transform="translate(-336 -177)"><g transform="translate(336 177)"><rect class="a" width="28" height="28" rx="14"/></g><g transform="translate(342.467 182.945)"><path class="b" d="M14.454,13.711a1.858,1.858,0,0,0,2.628-2.629L14.306,8.306a1.67,1.67,0,0,1,0-2.361l2.771-2.772A1.858,1.858,0,0,0,14.449.544L9.219,5.775A1.855,1.855,0,0,0,8.682,7.25a1.852,1.852,0,0,0,.542,1.23Z" transform="translate(-2.57 0)"/><path class="b" d="M5.291,6.405,3.172,4.287A1.858,1.858,0,0,0,.544,6.915L3.32,9.692a1.67,1.67,0,0,1,0,2.361L.549,14.825a1.858,1.858,0,1,0,2.628,2.629l4.545-4.546-2.1-2.1a3.426,3.426,0,0,1-.327-4.4Z" transform="translate(0 -1.109)"/></g></g></svg>