<svg xmlns="http://www.w3.org/2000/svg" width="24.511" height="24.511" viewBox="0 0 24.511 24.511">
  <defs>
    <style>
      .cls-1 {
        fill: #fff;
      }
    </style>
  </defs>
  <path id="路径_33182" data-name="路径 33182" class="cls-1" d="M58.334,45.568c-.088,0-.2.02-.283.02-.034,0-.088-.02-.121-.02a3.6,3.6,0,0,0-.37.034,12.305,12.305,0,0,0-7.845,3.5H49.7l-.02.034A12.259,12.259,0,0,0,57.56,70.045a2.228,2.228,0,0,0,.37.034c.054,0,.088-.02.121-.02.088,0,.2.02.283.02a12.255,12.255,0,0,0,0-24.511Zm-.3,22.861c-.108,0-.209-.02-.316-.02-.983-.2-2.168-1.7-2.956-4.2a23.2,23.2,0,0,1,6.37-.088C60.294,66.766,59.035,68.328,58.038,68.429Zm.3-6.108a27.48,27.48,0,0,0-4.007.3,24.447,24.447,0,0,1-.471-3.973h8.121a22.538,22.538,0,0,1-.458,3.872A25.523,25.523,0,0,0,58.334,62.322ZM52.907,51.938A23.3,23.3,0,0,0,52.227,57H47.762a10.512,10.512,0,0,1,2.384-5.919A15.3,15.3,0,0,0,52.907,51.938Zm4.815-4.707c.108,0,.209-.02.316-.02.909.088,2.013,1.347,2.835,3.535a25.331,25.331,0,0,1-5.845-.108C55.809,48.612,56.846,47.406,57.722,47.231Zm3.326.33A10.454,10.454,0,0,1,65.284,49.8a17.289,17.289,0,0,1-2.781.7A11.75,11.75,0,0,0,61.048,47.561Zm-2.714,4.956a27.864,27.864,0,0,0,3.03-.175A21.194,21.194,0,0,1,62,57.015H53.85a22.657,22.657,0,0,1,.667-4.781A27.012,27.012,0,0,0,58.334,52.517ZM52.22,58.645a25.39,25.39,0,0,0,.505,4.289,15.571,15.571,0,0,0-3.064,1.017,10.463,10.463,0,0,1-1.9-5.306Zm11.4,0h5.286A10.772,10.772,0,0,1,67,63.951a16.267,16.267,0,0,0-3.831-1.172A25.732,25.732,0,0,0,63.62,58.645Zm0-1.643a23.534,23.534,0,0,0-.646-4.9,18.7,18.7,0,0,0,3.555-1,10.4,10.4,0,0,1,2.364,5.919H63.62V57Zm-9.05-9.1A12.77,12.77,0,0,0,53.4,50.369a14.531,14.531,0,0,1-2.013-.559A10.761,10.761,0,0,1,54.57,47.9ZM50.752,65.244a14.355,14.355,0,0,1,2.384-.734,13.27,13.27,0,0,0,1.434,3.239A10.82,10.82,0,0,1,50.752,65.244Zm10.3,2.835a13.352,13.352,0,0,0,1.717-3.73,16.248,16.248,0,0,1,3.131.909A10.414,10.414,0,0,1,61.048,68.079Zm0,0" transform="translate(-46.079 -45.568)"/>
</svg>
