<svg xmlns="http://www.w3.org/2000/svg" width="21" height="21" viewBox="0 0 21 21">
  <defs>
    <style>
      .cls-1 {
        fill: #8c969f;
      }
    </style>
  </defs>
  <g id="组_65964" data-name="组 65964" transform="translate(-190 -545)">
    <path id="路径_32876" data-name="路径 32876" class="cls-1" d="M10.5,0A10.5,10.5,0,1,1,0,10.5,10.5,10.5,0,0,1,10.5,0Zm3.481,11.375H7.019c.193,4.466,1.842,7.875,3.481,7.875S13.788,15.841,13.981,11.375Zm-8.714,0H1.793a8.758,8.758,0,0,0,5.267,7.173,15.814,15.814,0,0,1-1.794-7.173Zm13.94,0H15.733a15.809,15.809,0,0,1-1.794,7.172,8.756,8.756,0,0,0,5.267-7.172ZM7.061,2.452l-.1.042a8.754,8.754,0,0,0-5.17,7.131H5.268A15.81,15.81,0,0,1,7.061,2.452Zm3.439-.7-.066,0C8.817,1.841,7.21,5.218,7.019,9.625h6.962C13.788,5.159,12.139,1.75,10.5,1.75Zm3.439.7L14,2.563a15.983,15.983,0,0,1,1.729,7.062h3.474a8.757,8.757,0,0,0-5.267-7.173Z" transform="translate(190 545)"/>
  </g>
</svg>
