<svg xmlns="http://www.w3.org/2000/svg" width="34.22" height="34.202" viewBox="0 0 34.22 34.202">
  <defs>
    <style>
      .cls-1 {
        fill: #e4e4e4;
      }
    </style>
  </defs>
  <g id="组_65969" data-name="组 65969" transform="translate(-112.64 -108.8)">
    <path id="路径_32892" data-name="路径 32892" class="cls-1" d="M138.9,113.939l-1.1-5.139-7.974,5.725-7.974-5.725-1.1,5.139,9.072,7.663ZM120.761,137.88l1.1,5.121,7.974-5.725L137.806,143l1.1-5.121-9.072-7.663Zm26.1-19.972-5.139-1.1-7.663,9.072,7.663,9.09,5.139-1.116-5.725-7.974Zm-29.08-1.1-5.139,1.1,5.725,7.974-5.725,7.974,5.139,1.116,7.663-9.09Z"/>
    <path id="路径_32893" data-name="路径 32893" class="cls-1" d="M458.911,455.071m-2.378,0a2.378,2.378,0,1,0,2.378-2.378A2.378,2.378,0,0,0,456.533,455.071Z" transform="translate(-329.152 -329.152)"/>
  </g>
</svg>
