<svg xmlns="http://www.w3.org/2000/svg" width="36" height="36" viewBox="0 0 36 36">
  <defs>
    <style>
      .cls-1 {
        fill: #fafafa;
        stroke: #dcdcdc;
        stroke-width: 0.2px;
      }

      .cls-2 {
        fill: #f8c642;
      }

      .cls-3 {
        fill: #7b49b6;
      }

      .cls-4 {
        fill: #fc3a64;
      }

      .cls-5 {
        fill: #4657e3;
      }

      .cls-6 {
        fill: #1fa27a;
      }

      .cls-7, .cls-8 {
        fill: #707070;
      }

      .cls-7 {
        opacity: 0.355;
      }

      .cls-8 {
        font-size: 7px;
        font-family: PingFangSC-Medium, PingFang SC;
        font-weight: 500;
        letter-spacing: 0.025em;
        opacity: 0.998;
      }

      .cls-9 {
        stroke: none;
      }

      .cls-10 {
        fill: none;
      }
    </style>
  </defs>
  <g id="组_66025" data-name="组 66025" transform="translate(-41 -121)">
    <g id="组_66024" data-name="组 66024" transform="translate(1 -1)">
      <g id="组_66023" data-name="组 66023">
        <g id="组_56656" data-name="组 56656" transform="translate(-188 -79)">
          <g id="椭圆_4" data-name="椭圆 4" class="cls-1" transform="translate(228 201)">
            <circle class="cls-9" cx="18" cy="18" r="18"/>
            <circle class="cls-10" cx="18" cy="18" r="17.9"/>
          </g>
        </g>
        <g id="组_65966" data-name="组 65966" transform="translate(47.918 120.245)">
          <path id="路径_32881" data-name="路径 32881" class="cls-2" d="M717.7,525.333h-1.264v-3.072H717.7Zm.465-3.072H717.7v3.072h2.008v-3.072Z" transform="translate(-695.595 -504.34)"/>
          <path id="路径_32882" data-name="路径 32882" class="cls-2" d="M717.748,655.245h-1.314v-3.072h1.314Z" transform="translate(-695.595 -631.179)"/>
          <path id="路径_32883" data-name="路径 32883" class="cls-3" d="M771.591,655.256h-1.724v-3.072h2.007v2.789A.284.284,0,0,1,771.591,655.256Z" transform="translate(-747.765 -631.19)"/>
          <path id="路径_32884" data-name="路径 32884" class="cls-4" d="M719.275,395.41h-2.841v-3.072h2.841Z" transform="translate(-695.595 -377.489)"/>
          <path id="路径_32885" data-name="路径 32885" class="cls-5" d="M791.072,395.41h-1.543v-3.072h1.543Z" transform="translate(-766.961 -377.489)"/>
          <path id="路径_32886" data-name="路径 32886" class="cls-2" d="M173.452,269.791l-.477,2.1h-3.763l3-12.348h5.3l2.848,12.348H176.64l-.486-2.1Zm.663-2.9h1.376l-.68-3.018Z" transform="translate(-161.313 -247.839)"/>
          <path id="路径_32887" data-name="路径 32887" class="cls-3" d="M273.808,259.547l-.541,2.645h6.355l-.514-2.645Z" transform="translate(-262.908 -248.257)"/>
          <path id="路径_32888" data-name="路径 32888" class="cls-4" d="M191.551,570.245h5.063l.663,2.9h-6.431Z" transform="translate(-182.436 -551.189)"/>
          <path id="路径_32889" data-name="路径 32889" class="cls-5" d="M406,442.6h3.7l.7,3.018H406.68Z" transform="translate(-392.502 -426.568)"/>
          <path id="路径_32890" data-name="路径 32890" class="cls-4" d="M718.556,241.893h3.171v1.126h-3.171Z" transform="translate(-697.667 -230.602)"/>
          <path id="路径_32891" data-name="路径 32891" class="cls-4" d="M718.556,288.088h3.171v1.126h-3.171Z" transform="translate(-697.667 -275.705)"/>
        </g>
        <g id="组_5" data-name="组 5" transform="translate(83.629 133.043)">
          <g id="组_66022" data-name="组 66022" transform="translate(-40 -1.541)">
            <path id="路径_14583" data-name="路径 14583" class="cls-6" d="M277.812,258.2H267.469v2.626h3.923v3.863h2.5v-3.863h3.922Z" transform="translate(-265.985 -258.202)"/>
            <path id="路径_14584" data-name="路径 14584" class="cls-6" d="M215.1,453.01c0-.873-2.988-1.58-6.686-1.58s-6.685.707-6.685,1.58c0,.769,2.324,1.409,5.4,1.55v5.628h2.528V454.56C212.751,454.425,215.1,453.782,215.1,453.01Zm-6.686,1.022c-3.288,0-5.954-.549-5.954-1.221s2.665-1.225,5.953-1.225,5.954.548,5.954,1.225-2.665,1.221-5.953,1.221Z" transform="translate(-201.728 -447.381)"/>
          </g>
        </g>
      </g>
      <path id="减去_8" data-name="减去 8" class="cls-7" d="M4029-5870a17.647,17.647,0,0,1-6.3-1.147,17.464,17.464,0,0,1-5.271-3.162A18.051,18.051,0,0,1,4011.5-5885H4047a18.051,18.051,0,0,1-6.213,10.691A18.371,18.371,0,0,1,4029-5870Z" transform="translate(-3971.251 6028)"/>
    </g>
    <text id="LP" class="cls-8" transform="translate(55 153)"><tspan x="0" y="0">LP</tspan></text>
  </g>
</svg>
