<svg id="组_19679" data-name="组 19679" xmlns="http://www.w3.org/2000/svg" xmlns:xlink="http://www.w3.org/1999/xlink" width="33.238" height="42.342" viewBox="0 0 33.238 42.342">
  <defs>
    <style>
      .cls-1, .cls-3 {
        fill: #383e45;
      }

      .cls-1 {
        stroke: #707070;
      }

      .cls-2 {
        clip-path: url(#clip-path);
      }
    </style>
    <clipPath id="clip-path">
      <rect id="矩形_2804" data-name="矩形 2804" class="cls-1" width="33.238" height="42.342"/>
    </clipPath>
  </defs>
  <g id="组_19678" data-name="组 19678" transform="translate(0 0)">
    <g id="组_19677" data-name="组 19677" class="cls-2">
      <path id="路径_13504" data-name="路径 13504" class="cls-3" d="M-68.019,15.162V15.2c-.165,0-.845-.064-2.553-.037h-15.32A5.2,5.2,0,0,0-91,20.445v31.7a5.2,5.2,0,0,0,5.107,5.283h22.981a5.2,5.2,0,0,0,5.106-5.283V25.728Zm1.275,31.7H-82.062a1.3,1.3,0,0,1-1.277-1.321,1.3,1.3,0,0,1,1.277-1.321h15.319a1.3,1.3,0,0,1,1.278,1.321,1.3,1.3,0,0,1-1.278,1.321Zm0-7.925H-82.062a1.3,1.3,0,0,1-1.277-1.321,1.3,1.3,0,0,1,1.277-1.321h15.319a1.3,1.3,0,0,1,1.278,1.321,1.3,1.3,0,0,1-1.278,1.321Zm1.278-13.206a2.6,2.6,0,0,1-2.554-2.642V17.8l7.659,7.924h-5.106Zm0,0" transform="translate(91 -15.145)"/>
    </g>
  </g>
</svg>
