<svg xmlns="http://www.w3.org/2000/svg" width="25" height="25" viewBox="0 0 25 25"><defs><style>.a{fill:#fefefe;}.b,.c{stroke:none;}.c{fill:#707070;}</style></defs><g transform="translate(-227 -326)"><g transform="translate(227 326)"><g class="a"><path class="b" d="M 12.5 24.75 C 9.227560043334961 24.75 6.151219844818115 23.47587013244629 3.837670087814331 21.16233062744141 C 1.524129986763 18.84877967834473 0.25 15.77243995666504 0.25 12.5 C 0.25 9.227829933166504 1.524440050125122 6.151500225067139 3.838560104370117 3.837680101394653 C 6.152420043945312 1.524129986763 9.228449821472168 0.25 12.5 0.25 C 15.77245044708252 0.25 18.84880065917969 1.524129986763 21.16234016418457 3.837670087814331 C 23.47587966918945 6.151209831237793 24.75 9.22754955291748 24.75 12.5 C 24.75 15.77243995666504 23.47587013244629 18.84877967834473 21.16233062744141 21.16233062744141 C 18.84877967834473 23.47587013244629 15.77243995666504 24.75 12.5 24.75 Z"/><path class="c" d="M 12.5 0.5 C 9.295220375061035 0.5 6.28196907043457 1.748130798339844 4.015329360961914 4.014469146728516 C 1.748430252075195 6.281059265136719 0.5 9.294610023498535 0.5 12.5 C 0.5 15.70567035675049 1.748119354248047 18.71923065185547 4.014440536499023 20.98554992675781 C 6.280769348144531 23.25188064575195 9.294329643249512 24.5 12.5 24.5 C 15.70565986633301 24.5 18.71923065185547 23.25188064575195 20.98554992675781 20.98554992675781 C 23.25188064575195 18.71923065185547 24.5 15.70565986633301 24.5 12.5 C 24.5 9.294329643249512 23.25188064575195 6.280769348144531 20.98555946350098 4.014450073242188 C 18.71924018859863 1.748119354248047 15.70567989349365 0.5 12.5 0.5 M 12.5 0 C 19.40431022644043 0 25 5.595720291137695 25 12.5 C 25 19.4042797088623 19.4042797088623 25 12.5 25 C 5.595710754394531 25 0 19.4042797088623 0 12.5 C 0 5.595710754394531 5.598129272460938 0 12.5 0 Z"/></g></g><g transform="translate(-416.112 -116.389)"><rect width="3.643" height="3.643" rx="0.585" transform="translate(650.111 449.4)"/><rect width="3.643" height="3.643" rx="0.585" transform="translate(657.532 449.389)"/><rect width="3.643" height="3.643" rx="0.585" transform="translate(653.844 453.042)"/><rect width="3.643" height="3.643" rx="0.585" transform="translate(650.111 456.685)"/><rect width="3.643" height="3.643" rx="0.585" transform="translate(657.532 456.685)"/></g></g></svg>