<svg xmlns="http://www.w3.org/2000/svg" width="20" height="20" viewBox="0 0 20 20"><defs><style>.a{fill:#fff;}.b,.e{fill:#633001;}.b,.d{fill-rule:evenodd;}.c{fill:#fedc90;}.d{fill:#d1884f;}</style></defs><g transform="translate(-336 -177)"><g transform="translate(-5755 -5836.032)"><rect class="a" width="20" height="20" rx="10" transform="translate(6091 6013.032)"/></g><g transform="translate(308.734 243.27)"><path class="b" d="M2.843,3.113a2.113,2.113,0,1,1,4.195-.384V5.31q.438-.031.89-.031.433,0,.855.029V2.729a2.113,2.113,0,1,1,4.195.384l-.572,3.034c1.965.849,3.45,2.324,3.45,4.177v1.121a4.444,4.444,0,0,1-2.442,3.661A10.752,10.752,0,0,1,7.928,16.49a10.752,10.752,0,0,1-5.486-1.384A4.444,4.444,0,0,1,0,11.445V10.324C0,8.481,1.47,7.012,3.418,6.161Zm8.828,3.433L12.342,3A1.467,1.467,0,1,0,9.43,2.729V6.014q-.319-.04-.647-.064-.421-.03-.855-.03-.452,0-.89.033-.328.024-.647.066V2.729A1.467,1.467,0,1,0,3.479,3l.672,3.562c-2.1.773-3.5,2.17-3.5,3.766v1.121c0,2.432,3.26,4.4,7.281,4.4s7.281-1.972,7.281-4.4V10.324C15.208,8.72,13.791,7.316,11.672,6.546Z" transform="translate(29.338 -64.759)"/><path class="c" d="M15.712,16.748c0,2.169-3.294,3.928-7.356,3.928S1,18.917,1,16.748v-1H15.712Z" transform="translate(28.911 -69.516)"/><path class="d" d="M3.861,3.387A1.483,1.483,0,1,1,6.8,3.115V6.468a12.085,12.085,0,0,1,3.071,0V3.115a1.483,1.483,0,1,1,2.942.272l-.677,3.619c2.141.785,3.573,2.216,3.573,3.851,0,2.479-3.294,4.489-7.356,4.489S1,13.337,1,10.857C1,9.23,2.417,7.806,4.54,7.018Z" transform="translate(28.911 -65.187)"/><path class="e" d="M8.049,14.446c0,.592-.32,1.071-.714,1.071s-.714-.48-.714-1.071.32-1.071.714-1.071S8.049,13.855,8.049,14.446Z" transform="translate(27.063 -69.173)"/><path class="e" d="M16.667,14.446c0,.592-.32,1.071-.714,1.071s-.714-.48-.714-1.071.32-1.071.714-1.071S16.667,13.855,16.667,14.446Z" transform="translate(24.101 -69.173)"/></g></g></svg>