<svg xmlns="http://www.w3.org/2000/svg" xmlns:xlink="http://www.w3.org/1999/xlink" width="36" height="36" viewBox="0 0 36 36"><defs><style>.a{fill:#fafafa;stroke:#dcdcdc;stroke-width:0.2px;}.b{fill:#fdae27;}.c{fill:url(#a);}.d,.e{fill:#707070;}.d{opacity:0.355;}.e{font-size:7px;font-family:PingFangSC-Medium, PingFang SC;font-weight:500;letter-spacing:0.025em;opacity:0.998;}.f{stroke:none;}.g{fill:none;}</style><linearGradient id="a" x1="0.5" x2="0.5" y2="1" gradientUnits="objectBoundingBox"><stop offset="0" stop-color="#2d79e6"/><stop offset="1" stop-color="#093d87"/></linearGradient></defs><g transform="translate(-38 -297)"><g transform="translate(-5 1)"><g transform="translate(3 174)"><g transform="translate(-188 -79)"><g class="a" transform="translate(228 201)"><circle class="f" cx="18" cy="18" r="18"/><circle class="g" cx="18" cy="18" r="17.9"/></g></g></g><path class="b" d="M41.374,143.165A6.558,6.558,0,1,1,46.6,132.65l-2.391,1.407a3.847,3.847,0,0,0-2.831-1.248,3.807,3.807,0,1,0,0,7.613,3.944,3.944,0,0,0,2.831-1.248L46.6,140.58A6.571,6.571,0,0,1,41.374,143.165Zm9.829-7.121v-1.073H50.13v-1.108H49.023v1.108h-1.09v-1.108H46.825v1.108H45.752v1.073h1.073v1.108H45.752v1.073h1.073v1.108h1.108v-1.108h1.073v1.108h1.108v-1.108h1.073v-1.073H50.113v-1.108Zm-2.163,1.125H47.933v-1.108H49.04Z" transform="translate(25.184 176.235)"/><g transform="translate(-157.682 136.051)"><path class="c" d="M205.7,168.61l-.464,3.138,2.718,2.165,1.192-1.857-2.7-1.259Z" transform="translate(0 0)"/><path class="c" d="M567.013,250.615v1.263l-.994,1.04,1.48.288.42-1.128Z" transform="translate(-353.089 -80.257)"/><path class="c" d="M274.277,339.521l-1.857,3.005-.928,7.711,2.9-3.863,5.1-3.231.663-2.452Z" transform="translate(-64.84 -167.267)"/><path class="c" d="M296.968,571.122l2.775-3.68,3.614-2.225,5.1,5.9Z" transform="translate(-89.774 -388.153)"/></g><path class="d" d="M4029-5870a17.647,17.647,0,0,1-6.3-1.147,17.464,17.464,0,0,1-5.271-3.162A18.051,18.051,0,0,1,4011.5-5885H4047a18.051,18.051,0,0,1-6.213,10.691A18.371,18.371,0,0,1,4029-5870Z" transform="translate(-3968.251 6202)"/></g><text class="e" transform="translate(52 329)"><tspan x="0" y="0">LP</tspan></text></g></svg>