<svg xmlns="http://www.w3.org/2000/svg" xmlns:xlink="http://www.w3.org/1999/xlink" width="20" height="20" viewBox="0 0 20 20"><defs><style>.a{fill:#fff;stroke:#707070;}.b{fill:#fafafa;}.c{clip-path:url(#a);}.d{fill:#002d8a;}.e{fill:#009ae0;}</style><clipPath id="a"><rect class="a" width="12" height="12" transform="translate(230 1363.854)"/></clipPath></defs><g transform="translate(-174 -826)"><g transform="translate(173.748 825.604)"><circle class="b" cx="10" cy="10" r="10" transform="translate(0.252 0.396)"/></g><g class="c" transform="translate(-52 -533.854)"><g transform="translate(230.397 1363.954)"><path class="d" d="M205.623,168.61l-.384,2.6L207.491,173l.988-1.539-2.234-1.043Z" transform="translate(-205.239 -168.61)"/><path class="d" d="M566.843,250.615v1.047l-.824.862,1.226.238.348-.935Z" transform="translate(-559.645 -249.166)"/><path class="e" d="M273.8,339.521l-1.539,2.49-.769,6.39,2.4-3.2,4.227-2.677.55-2.032Z" transform="translate(-270.321 -336.502)"/><path class="d" d="M296.968,570.111l2.3-3.049,2.995-1.844,4.225,4.893Z" transform="translate(-295.347 -558.211)"/></g></g></g></svg>