<svg xmlns="http://www.w3.org/2000/svg" xmlns:xlink="http://www.w3.org/1999/xlink" width="25" height="25" viewBox="0 0 25 25"><defs><style>.a{fill:#fff;}.b{fill:#fefefe;stroke:#8247e5;stroke-width:0.5px;}.c{clip-path:url(#a);}.d{fill:#8247e5;}.e{stroke:none;}.f{fill:none;}</style><clipPath id="a"><rect class="a" width="13.598" height="12.165" transform="translate(0 0)"/></clipPath></defs><g transform="translate(0 0)"><g transform="translate(0 0)"><g class="b"><circle class="e" cx="12.5" cy="12.5" r="12.5"/><circle class="f" cx="12.5" cy="12.5" r="12.25"/></g></g></g><g class="c" transform="translate(6 6)"><path class="d" d="M10.663,3.933a.91.91,0,0,0-.886,0L7.743,5.111l-1.382.768L4.328,7.057a.91.91,0,0,1-.886,0L1.825,6.135a.881.881,0,0,1-.443-.743V3.574a.828.828,0,0,1,.443-.743l1.59-.9a.91.91,0,0,1,.886,0l1.59.9a.881.881,0,0,1,.443.743V4.752l1.382-.794V2.78a.828.828,0,0,0-.443-.743L4.328.347a.91.91,0,0,0-.886,0l-3,1.69A.828.828,0,0,0,0,2.78V6.186a.828.828,0,0,0,.443.743l3,1.69a.91.91,0,0,0,.886,0L6.361,7.467l1.382-.794L9.777,5.52a.91.91,0,0,1,.886,0l1.59.9a.881.881,0,0,1,.443.743V8.978a.828.828,0,0,1-.443.743l-1.59.922a.91.91,0,0,1-.886,0l-1.59-.9A.881.881,0,0,1,7.743,9V7.825l-1.382.794V9.8a.828.828,0,0,0,.443.743l3,1.69a.91.91,0,0,0,.886,0l3-1.69a.881.881,0,0,0,.443-.743V6.391a.828.828,0,0,0-.443-.743Z" transform="translate(-0.366 -0.091)"/></g></svg>