<svg xmlns="http://www.w3.org/2000/svg" width="119" height="119" viewBox="0 0 119 119">
  <defs>
    <style>
      .cls-1 {
        opacity: 0.36;
      }

      .cls-2 {
        fill: #117aff;
      }
    </style>
  </defs>
  <g id="组_18081" data-name="组 18081" class="cls-1">
    <path id="路径_667" data-name="路径 667" class="cls-2" d="M160.989,479.341a1.248,1.248,0,0,1-1.249-1.249V466.159a2.5,2.5,0,0,0-2.5-2.5h-13.61a1.249,1.249,0,1,1,0-2.5h13.61a5.051,5.051,0,0,1,5.03,5.03v11.933a1.25,1.25,0,0,1-1.282,1.216Z" transform="translate(-43.271 -461.162)"/>
    <path id="路径_668" data-name="路径 668" class="cls-2" d="M157.241,629.8h-13.61a1.249,1.249,0,1,1,0-2.5h13.61a2.5,2.5,0,0,0,2.5-2.5V610.473a1.249,1.249,0,0,1,2.5,0v14.333a4.994,4.994,0,0,1-5,5Z" transform="translate(-43.271 -510.836)"/>
    <path id="路径_669" data-name="路径 669" class="cls-2" d="M-8,479.376a1.248,1.248,0,0,1-1.249-1.249v-12.1A5.051,5.051,0,0,1-4.224,461H8.662a1.249,1.249,0,0,1,0,2.5H-4.224a2.5,2.5,0,0,0-2.5,2.5v12.1A1.305,1.305,0,0,1-8,479.376Z" transform="translate(9.254 -461)"/>
    <path id="路径_670" data-name="路径 670" class="cls-2" d="M8.629,629.673H-4.224a5.051,5.051,0,0,1-5.03-5.03V610.31A1.249,1.249,0,0,1-8,609.061a1.249,1.249,0,0,1,1.249,1.249v14.333a2.5,2.5,0,0,0,2.5,2.5H8.6a1.266,1.266,0,0,1,.033,2.531Z" transform="translate(9.254 -510.673)"/>
  </g>
</svg>
