<svg xmlns="http://www.w3.org/2000/svg" width="4.283" height="7.766" viewBox="0 0 4.283 7.766"><defs><style>.a{fill:#abaaac;}</style></defs><g transform="translate(-283 332.512) rotate(-90)"><path class="a" d="M3.584.12a.41.41,0,0,1,.578,0,.4.4,0,0,1,0,.574L.7,4.145a.41.41,0,0,1-.578,0,.4.4,0,0,1,0-.574Z" transform="translate(324.746 287.282) rotate(-90)"/><path class="a" d="M4.163,3.573a.4.4,0,0,1,0,.574.41.41,0,0,1-.578,0L.119.692a.4.4,0,0,1,0-.574A.41.41,0,0,1,.7.12Z" transform="translate(328.247 287.282) rotate(-90)"/></g></svg>