<svg xmlns="http://www.w3.org/2000/svg" width="13" height="12.416" viewBox="0 0 13 12.416">
  <defs>
    <style>
      .cls-1 {
        fill: #fecd34;
      }

      .cls-2 {
        fill: #fea935;
      }
    </style>
  </defs>
  <g id="组_66016" data-name="组 66016" transform="translate(-121.456 -133.936)">
    <path id="路径_51973" data-name="路径 51973" class="cls-1" d="M146.7,184.677l-3.19,1.677a.534.534,0,0,1-.775-.563l.609-3.552a.534.534,0,0,0-.154-.473l-2.581-2.516a.534.534,0,0,1,.3-.911l3.566-.518a.534.534,0,0,0,.4-.292l1.595-3.232a.534.534,0,0,1,.958,0l1.6,3.232a.534.534,0,0,0,.4.292l3.566.518a.534.534,0,0,1,.3.911l-2.581,2.516a.534.534,0,0,0-.154.473l.609,3.552a.534.534,0,0,1-.775.563l-3.19-1.677a.534.534,0,0,0-.5,0Z" transform="translate(-18.995 -40.063)"/>
    <path id="路径_51974" data-name="路径 51974" class="cls-2" d="M140.449,441.635l6.5,1.424-4.084,5.979a.535.535,0,0,1-.13-.448l.609-3.552a.534.534,0,0,0-.154-.473l-2.581-2.515a.533.533,0,0,1-.16-.414Zm12.994.108a.534.534,0,0,1-.156.306l-2.581,2.515a.534.534,0,0,0-.154.473l.609,3.552a.534.534,0,0,1-.239.541l-3.975-6.071,6.469-1.571a.531.531,0,0,1,.025.255Z" transform="translate(-18.992 -302.899)"/>
  </g>
</svg>
