<svg t="1720151558079" class="icon" viewBox="0 0 1024 1024" version="1.1" xmlns="http://www.w3.org/2000/svg" p-id="4231" width="200" height="200"><path d="M526.051017 94.741781l126.356826 256.028141c2.282996 4.624321 6.694469 7.830339 11.79872 8.572236l282.543028 41.055045c12.852726 1.867534 17.984606 17.662265 8.6848 26.727735L750.983953 626.414843c-3.693112 3.599991-5.378497 8.786107-4.50664 13.869892l48.263214 281.401018c2.194992 12.800537-11.239995 22.561855-22.735817 16.518209L519.291057 805.345048c-4.564969-2.399653-10.018168-2.399653-14.583137 0L251.993245 938.203962c-11.495822 6.043646-24.931832-3.717671-22.735817-16.518209l48.264237-281.401018c0.871857-5.082762-0.813528-10.269901-4.50664-13.869892L68.565609 427.124937c-9.299807-9.06547-4.167926-24.860201 8.6848-26.727735l282.543028-41.055045c5.104251-0.741897 9.515724-3.946892 11.79872-8.572236L497.947959 94.741781C503.69587 83.095533 520.303106 83.095533 526.051017 94.741781z" p-id="4232" fill="#FECD34"></path></svg>