<svg xmlns="http://www.w3.org/2000/svg" width="346" height="116" viewBox="0 0 346 116"><defs><style>.a{fill:#1754ac;}.b{opacity:0.04;}.c{fill:#fafafa;}.d{fill:#ff960f;}.e{fill:#fff;}.f,.i{fill:#633001;}.f,.h{fill-rule:evenodd;}.g{fill:#fedc90;}.h{fill:#d1884f;}</style></defs><g transform="translate(-15 -91)"><g transform="translate(0 -55)"><rect class="a" width="346" height="116" rx="20" transform="translate(15 146)"/><g class="b" transform="translate(18.4 -17.555)"><path class="c" d="M208.821,168.61l-3.582,24.242,21,16.728,9.214-14.351L214.624,185.5Z" transform="translate(0 0)"/><path class="c" d="M573.7,250.615v9.759l-7.681,8.037,11.435,2.222,3.243-8.714Z" transform="translate(-301.355 -68.498)"/><path class="c" d="M293.012,339.521l-14.351,23.22-7.17,59.574,22.388-29.85,39.414-24.959,5.126-18.943Z" transform="translate(-55.34 -142.76)"/><path class="c" d="M296.968,610.837l21.44-28.429,27.922-17.19,39.391,45.619Z" transform="translate(-76.62 -331.282)"/></g><path class="d" d="M0,0H41A20,20,0,0,1,61,20V46L32.745,24.462Z" transform="translate(300 146)"/></g><g transform="translate(-3 -81)"><g transform="translate(-5755 -5836.032)"><rect class="e" width="20" height="20" rx="10" transform="translate(6091 6013.032)"/></g><g transform="translate(308.734 243.27)"><path class="f" d="M2.843,3.113a2.113,2.113,0,1,1,4.2-.384V5.31q.438-.031.89-.031.433,0,.855.029V2.729a2.113,2.113,0,1,1,4.195.384l-.572,3.034c1.965.849,3.45,2.324,3.45,4.177v1.121a4.444,4.444,0,0,1-2.442,3.661A10.752,10.752,0,0,1,7.928,16.49a10.752,10.752,0,0,1-5.486-1.384A4.444,4.444,0,0,1,0,11.445V10.324C0,8.481,1.47,7.012,3.418,6.161Zm8.828,3.433L12.342,3A1.467,1.467,0,1,0,9.43,2.729V6.014q-.319-.04-.647-.064-.421-.03-.855-.03-.452,0-.89.033-.328.024-.647.066V2.729A1.467,1.467,0,1,0,3.479,3l.672,3.562c-2.1.773-3.5,2.17-3.5,3.766v1.121c0,2.432,3.26,4.4,7.281,4.4s7.281-1.972,7.281-4.4V10.324c-.005-1.6-1.422-3.008-3.541-3.778Z" transform="translate(29.338 -64.759)"/><path class="g" d="M15.712,16.748c0,2.169-3.294,3.928-7.356,3.928S1,18.917,1,16.748v-1H15.712Z" transform="translate(28.911 -69.516)"/><path class="h" d="M3.861,3.387A1.483,1.483,0,1,1,6.8,3.115V6.468a12.085,12.085,0,0,1,3.071,0V3.115a1.483,1.483,0,1,1,2.942.272l-.677,3.619c2.141.785,3.573,2.216,3.573,3.851,0,2.479-3.294,4.489-7.356,4.489S1,13.337,1,10.857C1,9.23,2.417,7.806,4.54,7.018Z" transform="translate(28.911 -65.187)"/><path class="i" d="M8.049,14.446c0,.592-.32,1.071-.714,1.071s-.714-.48-.714-1.071.32-1.071.714-1.071S8.049,13.855,8.049,14.446Z" transform="translate(27.063 -69.173)"/><path class="i" d="M16.667,14.446c0,.592-.32,1.071-.714,1.071s-.714-.48-.714-1.071.32-1.071.714-1.071S16.667,13.855,16.667,14.446Z" transform="translate(24.101 -69.173)"/></g></g></g></svg>