<svg xmlns="http://www.w3.org/2000/svg" width="25" height="25" viewBox="0 0 25 25"><defs><style>.a{fill:#fefefe;}.b{fill:#c23227;}.c,.d{stroke:none;}.d{fill:#c23227;}</style></defs><g transform="translate(0 0)"><g class="a" transform="translate(0 0)"><path class="c" d="M 12.5 24.75 C 9.227910041809082 24.75 6.151659965515137 23.47578048706055 3.837939977645874 21.16205978393555 C 1.524219989776611 18.84833908081055 0.25 15.77208995819092 0.25 12.5 C 0.25 9.227910041809082 1.524219989776611 6.151659965515137 3.837939977645874 3.837939977645874 C 6.151659965515137 1.524219989776611 9.227910041809082 0.25 12.5 0.25 C 15.77208995819092 0.25 18.84833908081055 1.524219989776611 21.16205978393555 3.837939977645874 C 23.47578048706055 6.151659965515137 24.75 9.227910041809082 24.75 12.5 C 24.75 15.77208995819092 23.47578048706055 18.84833908081055 21.16205978393555 21.16205978393555 C 18.84833908081055 23.47578048706055 15.77208995819092 24.75 12.5 24.75 Z"/><path class="d" d="M 12.5 0.5 C 9.294679641723633 0.5 6.281219482421875 1.748220443725586 4.014720916748047 4.014720916748047 C 1.748220443725586 6.281219482421875 0.5 9.294679641723633 0.5 12.5 C 0.5 15.70532035827637 1.748220443725586 18.71878051757812 4.014720916748047 20.98527908325195 C 6.281219482421875 23.25177955627441 9.294679641723633 24.5 12.5 24.5 C 15.70532035827637 24.5 18.71878051757812 23.25177955627441 20.98527908325195 20.98527908325195 C 23.25177955627441 18.71878051757812 24.5 15.70532035827637 24.5 12.5 C 24.5 9.294679641723633 23.25177955627441 6.281219482421875 20.98527908325195 4.014720916748047 C 18.71878051757812 1.748220443725586 15.70532035827637 0.5 12.5 0.5 M 12.5 0 C 19.40356063842773 0 25 5.596439361572266 25 12.5 C 25 19.40356063842773 19.40356063842773 25 12.5 25 C 5.596439361572266 25 0 19.40356063842773 0 12.5 C 0 5.596439361572266 5.596439361572266 0 12.5 0 Z"/></g><path class="b" d="M32.765,2.108,21.946.052l5.748,15.135L35.579,5.034ZM34.124,4.87l-4.1.706,2.6-2.326,1.5,1.62ZM31.446,2.9,28.764,5.264,24.352,1.382,31.446,2.9Zm-3.752,9.8L23.649,2.047l4.669,4.276L27.7,12.7Zm.8,0,.7-5.939,4.592-.913-5.3,6.852Z" transform="translate(-15.946 4.948)"/></g></svg>