<svg xmlns="http://www.w3.org/2000/svg" width="28" height="28" viewBox="0 0 28 28"><defs><style>.a{fill:#fff;}.b{fill-rule:evenodd;}</style></defs><g transform="translate(-336 -177)"><g transform="translate(336 177)"><rect class="a" width="28" height="28" rx="14" transform="translate(0 0)"/></g><g transform="translate(341.6 182.6)"><path d="M4.184,1.562c-.225-.035-.235-.039-.129-.055A3.516,3.516,0,0,1,5.068,1.6,4.374,4.374,0,0,1,7.289,3.074l.2.22.285-.045a6.037,6.037,0,0,1,3.438.429,4.456,4.456,0,0,1,.778.451,1.194,1.194,0,0,1,.072.3A1.862,1.862,0,0,1,11.945,5.6a.3.3,0,0,0-.032.338.328.328,0,0,0,.294.185c.253,0,.526-.408.653-.974l.05-.225.1.112a4.338,4.338,0,0,1,1.048,2.049l.019.156-.092-.141a1.749,1.749,0,0,0-.52-.542,3.3,3.3,0,0,0-1.778-.376,7.272,7.272,0,0,1-1.97-.3c-.884-.286-1.33-.668-2.38-2.037A10,10,0,0,0,6.3,2.627,3.731,3.731,0,0,0,4.184,1.562Z" transform="translate(0.784 -0.304)"/><path d="M11.089,2.867a2.463,2.463,0,0,1,.191-.922.988.988,0,0,1,.092-.177.609.609,0,0,1-.043.159,2.083,2.083,0,0,0-.039.943c.071.481.112.551.623,1.07.24.244.519.551.62.683l.184.24-.184-.172a7.835,7.835,0,0,0-.857-.677c-.077-.039-.088-.039-.135.008s-.053.108-.059.414a2.3,2.3,0,0,1-.233,1.089c-.085.166-.1.13-.022-.057a1.483,1.483,0,0,0,.063-.663c0-.928-.112-1.151-.762-1.533-.165-.1-.436-.236-.6-.31a2.288,2.288,0,0,1-.295-.143,6.315,6.315,0,0,1,.907.263c.38.145.442.164.488.146C11.059,3.219,11.074,3.13,11.089,2.867Z" transform="translate(1.893 -0.251)"/><path d="M4.63,4.427a3.763,3.763,0,0,1-.678-2.3l.019-.222.1.019a2.62,2.62,0,0,1,.69.255c.433.261.62.6.81,1.488.056.259.129.551.163.65a4.388,4.388,0,0,0,.426.774c.12.174.04.257-.225.233A2.16,2.16,0,0,1,4.63,4.427Z" transform="translate(0.775 -0.224)"/><path d="M10.861,8.424c-2.135-.854-2.887-1.6-2.887-2.847a2.007,2.007,0,0,1,.014-.335,1.62,1.62,0,0,1,.184.135,4.327,4.327,0,0,0,2.26.687,9.4,9.4,0,0,1,1.644.342,3.124,3.124,0,0,1,2.3,2.488,4.08,4.08,0,0,1-.067,1.333,2.555,2.555,0,0,1-.348.773c-.016.005-.032-.056-.036-.139a1.716,1.716,0,0,0-.629-1.2A8.644,8.644,0,0,0,10.861,8.424Z" transform="translate(1.567 0.432)"/><path d="M9.882,8.3a3.749,3.749,0,0,0-.1-.449l-.054-.161.1.113a1.806,1.806,0,0,1,.344.622,1.344,1.344,0,0,1,.079.594,1.322,1.322,0,0,1-.076.575,1.816,1.816,0,0,1-.451.712,2.574,2.574,0,0,1-1.615.7c-.126.016-.492.042-.815.059a6.379,6.379,0,0,0-1.827.3.388.388,0,0,1-.137.033,2.523,2.523,0,0,1,.578-.342,5.593,5.593,0,0,1,1.609-.422c.42-.07.853-.154.963-.187A1.832,1.832,0,0,0,9.882,8.3Z" transform="translate(1.047 0.913)"/><path d="M10,9.944A2.445,2.445,0,0,1,9.8,8.207c.017-.058.043-.106.059-.106a.576.576,0,0,1,.149.08c.131.087.393.235,1.091.613a5.4,5.4,0,0,1,1.706,1.256,2.723,2.723,0,0,1,.567,1.291,4.367,4.367,0,0,1-.054,1.27,3.156,3.156,0,0,1-1.556,2.051,2,2,0,0,1-.227.112.831.831,0,0,1,.092-.233,2.084,2.084,0,0,0,.093-1.659,7.036,7.036,0,0,0-.865-1.541A10.384,10.384,0,0,1,10,9.944Z" transform="translate(1.911 0.994)"/><path d="M3.289,12.59a5.8,5.8,0,0,1,2.676-1.282,4.2,4.2,0,0,1,1.39.053,2.384,2.384,0,0,1,1.355.863,3.1,3.1,0,0,1,.49,1.452c.046.291.1.584.111.65a1.438,1.438,0,0,0,.469.843,1.628,1.628,0,0,0,1.482.039.739.739,0,0,1,.186-.057,1.69,1.69,0,0,1-.467.311,1.6,1.6,0,0,1-.775.187,1.551,1.551,0,0,1-1.313-.8,6.343,6.343,0,0,1-.354-.7c-.381-.863-.569-1.126-1.011-1.414a1.31,1.31,0,0,0-1.254-.113A.805.805,0,0,0,6,13.875a1.09,1.09,0,0,0,.613.318.653.653,0,0,0,.74-.651A.508.508,0,0,0,7,13.022c-.345-.155-.716.026-.714.348a.289.289,0,0,0,.2.286c.089.04.091.043.018.028a.392.392,0,0,1-.136-.7.78.78,0,0,1,1.154.244,1.058,1.058,0,0,1,.022.727,1.011,1.011,0,0,1-1.222.578,1.7,1.7,0,0,1-.936-.631A2.893,2.893,0,0,0,3.261,12.82l-.207-.032Z" transform="translate(0.6 1.618)"/><path class="b" d="M.369.959A40.523,40.523,0,0,0,4.792,5.492c.158.218.1.413-.173.566A1.653,1.653,0,0,1,4,6.23a.321.321,0,0,1-.236-.067c-.1-.1-.159-.079-.682-1C2.359,4.042,1.752,3.113,1.735,3.1,1.7,3.061,1.7,3.062,3.011,5.4a.829.829,0,0,1,.042.735c0,.141-.039.215-.214.409a2.358,2.358,0,0,0-.517,1.44A4.5,4.5,0,0,1,1.1,10.443a4.87,4.87,0,0,0-.682.947,1.739,1.739,0,0,0-.212.856A2.648,2.648,0,0,0,.345,13.3a3.759,3.759,0,0,0,.513,1.01,2.337,2.337,0,0,1,.4.785c0,.089.017.089.406,0a4.221,4.221,0,0,0,2.11-1.026.966.966,0,0,0,.327-.814.79.79,0,0,0-.075-.445,1.963,1.963,0,0,0-.755-.729,1.7,1.7,0,0,1-.9-1.149A1.983,1.983,0,0,1,2.7,9.652a3.859,3.859,0,0,0,.471-1.687c.036-.451.086-.629.216-.772a.814.814,0,0,1,.6-.245,2.03,2.03,0,0,0,1.186-.479,1.021,1.021,0,0,0,.37-.779l.012-.251-.139-.161C4.9,4.693.031.5,0,.5-.006.5.16.707.369.959ZM1.536,12.7a.442.442,0,0,0-.137-.585c-.18-.119-.46-.063-.46.092,0,.047.026.082.086.112.1.051.107.109.029.226s-.073.224.018.295A.314.314,0,0,0,1.536,12.7Z" transform="translate(0 -0.5)"/><path class="b" d="M5.025,6a.964.964,0,0,0-.586.635.9.9,0,0,0,.05.572c.114.152.225.192.525.19.587,0,1.1-.254,1.156-.567a.833.833,0,0,0-.484-.768A1.155,1.155,0,0,0,5.025,6Zm.686.533a.236.236,0,0,0-.1-.359c-.293-.178-.736-.031-.736.245,0,.137.231.286.443.286A.574.574,0,0,0,5.711,6.536Z" transform="translate(0.868 0.577)"/></g></g></svg>