<svg xmlns="http://www.w3.org/2000/svg" width="30" height="30" viewBox="0 0 30 30"><defs><style>.a{fill:none;opacity:0;}.b{fill:#8a8a8a;}</style></defs><g transform="translate(-205 -438)"><g transform="translate(0 36)"><rect class="a" width="30" height="30" transform="translate(205 402)"/></g><path class="b" d="M62.773,55.258l-3.8,8.775-4.245-9.8a.76.76,0,0,0-1.208-.258.783.783,0,0,0-.171.9l4.23,9.759a1.52,1.52,0,0,0,2.789,0l4.04-9.333a2.09,2.09,0,0,1,3.42.73,9.5,9.5,0,1,1-10.2-5.959,9.664,9.664,0,0,1,4.279.38.779.779,0,0,0,.885-.243.76.76,0,0,0-.38-1.186,11,11,0,1,0,6.612,5.94A3.3,3.3,0,0,0,64.137,53.6,3.926,3.926,0,0,0,62.773,55.258Z" transform="translate(161.049 393.537)"/></g></svg>