<svg xmlns="http://www.w3.org/2000/svg" width="90.493" height="67.87" viewBox="0 0 90.493 67.87"><defs><style>.a{fill:#ffb800;}.b{fill:#f9c85d;}.c{fill:#fff;}</style></defs><g transform="translate(-146 -188.13)"><g transform="translate(0 -60)"><g transform="translate(146 250.582)"><path class="a" d="M23.745,0H67a9.189,9.189,0,0,1,7.042,3.162L88.885,21.908a7.3,7.3,0,0,1-1.006,10.164L51.411,65.5a9.19,9.19,0,0,1-12.324,0L2.619,32.3A7.3,7.3,0,0,1,1.613,22.134L16.452,3.388A9.933,9.933,0,0,1,23.745,0Z" transform="translate(-0.002 -2.452)"/><path class="b" d="M73.871,5.6,72.207,3.445A8.415,8.415,0,0,0,65.547,0H24.166a8.687,8.687,0,0,0-6.659,3.445L3.237,21.529A6.7,6.7,0,0,0,2.761,28.2a7.8,7.8,0,0,0,2.378,3.014L35.581,58.989Z" transform="translate(0.513 -0.874)"/><path class="c" d="M250.094,271.462h2.619l2.245,10.62,5.613-10.443h5.238l-8.232,15.222h-5.239l-2.806-13.275h-2.806v-2.124Zm21.89,10.266a2.817,2.817,0,0,0,2.806,3.186q2.526-.266,2.806-3.186c0-2.3-1.871-3.54-5.426-3.54v-3.009c3.555,0,5.426-1.239,5.426-3.363a2.541,2.541,0,0,0-2.806-2.832,2.938,2.938,0,0,0-2.619,2.832h-4.864c.187-3.894,2.806-5.841,7.484-6.018,4.677.354,7.109,2.124,7.484,5.31,0,2.832-1.5,4.6-4.3,5.31a5.33,5.33,0,0,1,4.3,5.664c-.374,3.363-2.994,5.133-7.858,5.487-5.051,0-7.484-1.947-7.484-6.018h5.051Z" transform="translate(-230.222 -251.229)"/></g><g transform="translate(149.911 325.08)"><path class="c" d="M311.906,302.117h4.7V282.483h-3.273a4.364,4.364,0,0,1-.569,1.472l-.854.982-1.281.491a6.57,6.57,0,0,1-1.85.164v3.272h3.273Z" transform="translate(-251.686 -341.436)"/></g></g><circle class="c" cx="2" cy="2" r="2" transform="translate(201 222)"/></g></svg>